<?xml version="1.0" encoding="utf-8"?>
<!-- Generator: Adobe Illustrator 27.5.0, SVG Export Plug-In . SVG Version: 6.00 Build 0)  -->
<svg version="1.1" xmlns="http://www.w3.org/2000/svg" xmlns:xlink="http://www.w3.org/1999/xlink" x="0px" y="0px"
	 viewBox="0 0 500 500" style="enable-background:new 0 0 500 500;" xml:space="preserve">
<g id="BACKGROUND">
	<rect style="fill:#FFFFFF;" width="500" height="500"/>
</g>
<g id="OBJECTS">
	
		<path id="_x3C_Grupo_x3E__00000011004880624414816770000003842661772502160812_" style="fill-rule:evenodd;clip-rule:evenodd;fill:#EEF5FF;" d="
		M27.053,343.357c20.269,72.772,97.919,64.577,166.532,78.921c57.287,11.976,124.886,45.236,197.154,6.985
		c91.819-48.599,72.15-131.81,55.981-159.326c-16.169-27.516-57.406-24.599-78.905-57.267
		c-21.498-32.667,8.718-92.41-48.507-122.885c-43.763-23.306-88.393-16.398-115.658,7.507
		c-35.661,31.266-28.206,58.354-62.484,93.279C110.013,222.314,2.04,253.549,27.053,343.357L27.053,343.357z M398.048,136.462
		c-14.067,0.866-18.134,25.725-14.287,44.85c6.149,30.563,33.898,36.806,46.839,29.027c16.355-9.832,10.42-37.798,0-52.175
		C422.833,147.445,409.804,135.738,398.048,136.462L398.048,136.462z M128.561,159.195c15.822-17.573,28.667-44.765,14.321-58.285
		c-9.344-8.807-35.654,0.52-58.717,20.746c-19.923,17.473-29.901,44.948-19.783,59.656
		C74.853,196.532,107.671,182.398,128.561,159.195z"/>
	<path id="_x3C_Grupo_x3E_" style="fill-rule:evenodd;clip-rule:evenodd;fill:#CEDDEF;" d="M453.753,362.955
		c-8.871,23.797-27.694,47.614-63.014,66.308c-72.268,38.251-139.867,4.991-197.154-6.985
		c-61.715-12.902-130.742-7.569-158.746-59.323H453.753L453.753,362.955z"/>
	<g>
		<g>
			<path style="fill:#307175;" d="M361.533,326.184c3.263,4.032,6.841,7.798,10.691,11.278c-0.211,4.664,0.576,9.283,2.305,13.468
				c0.33,0.799,0.71,1.604,1.362,2.167c0.653,0.563,1.643,0.836,2.499,0.455c0.847-0.377,1.363-1.305,1.459-2.187
				c0.096-0.882-0.153-1.733-0.43-2.546c-1.191-3.49-2.963-6.744-5.22-9.617c2.442,2.096,4.984,4.081,7.619,5.949
				c-0.155,4.54,0.639,9.027,2.323,13.103c0.33,0.799,0.71,1.604,1.362,2.167c0.653,0.563,1.643,0.836,2.499,0.455
				c0.847-0.377,1.363-1.305,1.459-2.187c0.096-0.882-0.153-1.734-0.43-2.546c-1.19-3.488-2.961-6.74-5.216-9.612
				c2.645,1.785,5.375,3.454,8.183,5.003c0.289,4.483,1.52,8.825,3.6,12.682c0.409,0.758,0.868,1.517,1.578,2.012
				c0.71,0.495,1.73,0.673,2.553,0.217c0.814-0.451,1.241-1.414,1.252-2.294c0.011-0.88-0.322-1.697-0.679-2.473
				c-1.53-3.326-3.619-6.368-6.156-8.991c2.727,1.425,5.522,2.738,8.377,3.936c0.773,4.329,2.451,8.428,4.912,11.977
				c0.49,0.706,1.03,1.409,1.795,1.825c0.765,0.417,1.808,0.49,2.585-0.041c0.77-0.526,1.098-1.518,1.017-2.387
				c-0.081-0.868-0.501-1.64-0.941-2.37c-1.806-2.994-4.096-5.681-6.766-7.951c2.824,1.101,5.702,2.088,8.625,2.96
				c1.149,4.213,3.183,8.124,5.956,11.427c0.552,0.658,1.155,1.309,1.959,1.658c0.803,0.35,1.857,0.336,2.592-0.253
				c0.728-0.583,0.972-1.592,0.816-2.444c-0.156-0.852-0.643-1.581-1.148-2.267c-2.096-2.848-4.664-5.343-7.585-7.383
				c2.81,0.765,5.659,1.424,8.541,1.971c1.624,4.027,4.103,7.662,7.257,10.619c0.628,0.589,1.306,1.165,2.151,1.423
				c0.846,0.258,1.901,0.132,2.574-0.526c0.666-0.652,0.798-1.671,0.546-2.493c-0.252-0.822-0.822-1.488-1.405-2.109
				c-2.408-2.566-5.246-4.738-8.384-6.43c1.741,0.286,3.492,0.532,5.253,0.737c3.456,1.798,7.293,2.967,11.281,3.425
				c0.893,0.102,1.821,0.167,2.71-0.107c0.889-0.274,1.736-0.962,1.938-1.845c0.199-0.875-0.282-1.734-0.983-2.227
				c-0.701-0.493-1.589-0.686-2.46-0.839c-4.313-0.754-8.834-0.727-13.28,0.069c-1.473-0.186-2.939-0.402-4.398-0.646
				c3.844-0.314,7.692-1.249,11.332-2.772c0.863-0.361,1.739-0.771,2.402-1.437c0.664-0.666,1.074-1.65,0.796-2.472
				c-0.275-0.813-1.159-1.276-2.052-1.329c-0.893-0.053-1.798,0.231-2.668,0.541c-4.469,1.591-8.705,3.979-12.424,7
				c-3.126-0.6-6.212-1.331-9.25-2.189c4.326-0.174,8.691-1.148,12.792-2.863c0.863-0.361,1.739-0.771,2.402-1.437
				c0.664-0.667,1.074-1.65,0.796-2.472c-0.275-0.813-1.159-1.276-2.052-1.329c-0.893-0.053-1.798,0.231-2.668,0.541
				c-4.551,1.621-8.859,4.069-12.627,7.168c-3.157-0.935-6.26-2.009-9.298-3.214c4.271-0.192,8.576-1.162,12.623-2.854
				c0.863-0.361,1.739-0.771,2.402-1.437c0.664-0.667,1.074-1.65,0.796-2.472c-0.275-0.813-1.159-1.276-2.052-1.329
				c-0.893-0.053-1.799,0.231-2.669,0.541c-4.475,1.593-8.716,3.986-12.438,7.011c-3.186-1.313-6.299-2.772-9.326-4.37
				c3.924,0.357,7.972,0.042,11.907-0.939c0.899-0.224,1.819-0.495,2.575-1.057c0.756-0.562,1.319-1.482,1.185-2.348
				c-0.132-0.858-0.915-1.461-1.774-1.656c-0.859-0.195-1.787-0.055-2.685,0.117c-4.528,0.867-8.964,2.541-13.023,4.905
				c-2.816-1.557-5.552-3.238-8.202-5.036c4.091,0.438,8.33,0.142,12.445-0.884c0.899-0.224,1.819-0.495,2.575-1.057
				c0.756-0.562,1.319-1.482,1.185-2.348c-0.132-0.858-0.915-1.461-1.774-1.656c-0.859-0.195-1.787-0.055-2.685,0.117
				c-4.541,0.87-8.989,2.55-13.057,4.925c-2.896-2.03-5.681-4.201-8.343-6.509c3.592,1.054,7.419,1.504,11.273,1.31
				c0.911-0.046,1.851-0.134,2.694-0.545c0.843-0.411,1.574-1.217,1.625-2.108c0.051-0.882-0.577-1.639-1.363-2.003
				s-1.707-0.408-2.605-0.414c-4.463-0.031-9.002,0.737-13.333,2.245c-3.754-3.405-7.246-7.086-10.433-11.024L361.533,326.184z"/>
			<g>
				<path style="fill:#205656;" d="M363.984,310.25c8.022,16.397,24.473,28.38,42.54,30.987
					c18.067,2.607,37.235-4.235,49.566-17.695c-10.916-21.251-36.962-32.767-60.401-28.144
					C384.181,297.668,372.501,302.185,363.984,310.25z"/>
				<path style="fill:#448C8C;" d="M384.054,312.431l20.152-18.005c0.72-0.026,1.441-0.036,2.162-0.034l-20.485,18.302l17.523,2.529
					l19.364-18.387c0.519,0.155,1.038,0.309,1.552,0.478l-19.132,18.167l10.894,1.572l16.237-16.45
					c0.442,0.221,0.878,0.451,1.314,0.683l-15.811,16.018l6.605,0.953l15.026-13.425c0.398,0.276,0.792,0.555,1.183,0.841
					l-14.38,12.848l29.411,4.245c0.139,0.259,0.287,0.513,0.422,0.775c-0.195,0.213-0.397,0.42-0.595,0.629l-37.982-5.482
					l9.753,21.552c-0.469,0.111-0.939,0.214-1.411,0.314l-10.003-22.106l-18.903-2.728l11.003,25.698
					c-0.476-0.056-0.952-0.114-1.427-0.182c-0.069-0.01-0.137-0.023-0.205-0.033l-11.012-25.719l-9.967-1.439l8.462,23.721
					c-0.594-0.241-1.185-0.49-1.771-0.751l-8.276-23.198l-19.379-2.797c-0.131-0.257-0.266-0.512-0.393-0.771
					c0.221-0.209,0.445-0.414,0.67-0.618L384.054,312.431z"/>
			</g>
			<path style="fill:#307175;" d="M345.492,332.602c4.727-4.326,9.131-8.988,13.19-13.931c5.55-0.346,11.025-1.854,15.965-4.407
				c0.943-0.487,1.892-1.033,2.548-1.868s0.96-2.027,0.49-2.978c-0.465-0.942-1.579-1.427-2.63-1.427
				c-1.051,0-2.058,0.399-3.018,0.827c-4.124,1.836-7.957,4.32-11.327,7.325c2.442-3.121,4.75-6.345,6.916-9.663
				c5.401-0.396,10.72-1.894,15.531-4.381c0.943-0.487,1.892-1.033,2.548-1.868c0.656-0.835,0.96-2.027,0.49-2.978
				c-0.465-0.942-1.579-1.427-2.63-1.427c-1.051,0-2.058,0.399-3.018,0.827c-4.122,1.835-7.953,4.318-11.321,7.32
				c2.068-3.318,3.997-6.723,5.78-10.201c5.324-0.908,10.461-2.899,15.004-5.821c0.893-0.574,1.786-1.207,2.36-2.1
				s0.764-2.108,0.206-3.011c-0.552-0.894-1.707-1.271-2.753-1.172c-1.046,0.099-2.011,0.592-2.927,1.108
				c-3.924,2.212-7.497,5.04-10.563,8.339c1.639-3.369,3.143-6.803,4.508-10.292c5.131-1.455,9.97-3.937,14.138-7.265
				c0.829-0.662,1.654-1.383,2.134-2.33c0.48-0.947,0.545-2.175-0.102-3.017c-0.641-0.833-1.828-1.091-2.858-0.885
				c-1.031,0.205-1.94,0.794-2.798,1.401c-3.523,2.491-6.671,5.51-9.314,8.92c1.251-3.441,2.366-6.93,3.343-10.459
				c4.985-1.879,9.593-4.754,13.464-8.415c0.771-0.729,1.532-1.517,1.931-2.501c0.399-0.984,0.361-2.213-0.354-2.998
				c-0.708-0.777-1.912-0.934-2.922-0.643c-1.01,0.291-1.867,0.953-2.671,1.63c-3.344,2.812-6.257,6.132-8.623,9.805
				c0.852-3.382,1.578-6.796,2.169-10.234c4.754-2.41,9.025-5.771,12.476-9.833c0.687-0.809,1.358-1.674,1.648-2.696
				c0.29-1.021,0.119-2.239-0.678-2.941c-0.788-0.695-2.003-0.72-2.975-0.321c-0.972,0.399-1.752,1.151-2.478,1.911
				c-3.001,3.141-5.526,6.735-7.473,10.618c0.305-2.071,0.561-4.15,0.769-6.235c2.067-4.268,3.379-8.902,3.842-13.623
				c0.104-1.057,0.161-2.15-0.183-3.154c-0.344-1.004-1.179-1.907-2.234-2.03c-1.044-0.122-2.056,0.55-2.627,1.432
				c-0.571,0.882-0.784,1.944-0.947,2.982c-0.808,5.138-0.683,10.419,0.353,15.515c-0.191,1.746-0.418,3.487-0.678,5.223
				c-0.451-4.454-1.643-8.833-3.527-12.894c-0.447-0.963-0.952-1.934-1.758-2.625c-0.806-0.691-1.984-1.045-2.955-0.616
				c-0.961,0.425-1.493,1.517-1.538,2.567c-0.045,1.05,0.311,2.073,0.697,3.051c1.983,5.022,4.909,9.67,8.576,13.633
				c-0.649,3.73-1.455,7.431-2.413,11.091c-0.295-5.035-1.543-10.014-3.666-14.589c-0.447-0.963-0.952-1.934-1.758-2.625
				c-0.806-0.691-1.984-1.045-2.955-0.616c-0.961,0.425-1.493,1.517-1.538,2.567c-0.045,1.05,0.311,2.073,0.697,3.051
				c2.02,5.114,5.018,9.838,8.78,13.849c-1.047,3.809-2.26,7.573-3.63,11.278c-0.316-4.968-1.557-9.877-3.652-14.392
				c-0.447-0.963-0.952-1.934-1.758-2.625c-0.806-0.691-1.984-1.045-2.955-0.616c-0.961,0.425-1.493,1.517-1.538,2.567
				c-0.045,1.05,0.311,2.073,0.697,3.051c1.986,5.028,4.917,9.681,8.59,13.648c-1.495,3.892-3.166,7.716-5.005,11.457
				c0.345-4.632-0.113-9.324-1.36-13.799c-0.285-1.023-0.626-2.063-1.309-2.875c-0.683-0.812-1.788-1.353-2.816-1.087
				c-1.018,0.264-1.719,1.255-1.933,2.284c-0.214,1.029-0.029,2.096,0.194,3.123c1.124,5.183,3.204,10.156,6.098,14.6
				c-1.794,3.49-3.737,6.902-5.819,10.228c0.437-4.838-0.002-9.755-1.306-14.435c-0.285-1.023-0.626-2.063-1.31-2.875
				c-0.683-0.812-1.788-1.353-2.816-1.087c-1.017,0.264-1.719,1.255-1.933,2.284c-0.214,1.029-0.029,2.096,0.194,3.123
				c1.127,5.197,3.216,10.183,6.122,14.637c-2.354,3.643-4.879,7.175-7.567,10.579c1.179-4.333,1.636-8.863,1.327-13.344
				c-0.073-1.059-0.197-2.147-0.703-3.08c-0.506-0.933-1.479-1.685-2.539-1.632c-1.05,0.053-1.936,0.883-2.354,1.848
				c-0.417,0.965-0.451,2.047-0.439,3.098c0.055,5.221,1.061,10.429,2.942,15.3c-3.972,4.821-8.277,9.371-12.894,13.597
				L345.492,332.602z"/>
			<g>
				<path style="fill:#448C8C;" d="M382.425,303.665c14.618,2.216,30.183-3.215,40.248-14.045
					c10.065-10.83,14.345-26.75,11.066-41.167c-19.185-2.527-38.861,9.509-46.588,27.25
					C383.357,284.413,380.98,294.275,382.425,303.665z"/>
				<path style="fill:#205656;" d="M393.13,291.304l-2.7-21.721c0.315-0.492,0.64-0.976,0.974-1.455l2.745,22.08l9.762-10.504
					l-3.319-21.372c0.342-0.274,0.684-0.549,1.034-0.813l3.279,21.116l6.069-6.53l-3.47-18.397c0.351-0.193,0.706-0.377,1.061-0.56
					l3.379,17.914l3.68-3.96l-2.014-16.196c0.367-0.138,0.735-0.272,1.105-0.4l1.927,15.5l16.385-17.63
					c0.237,0.027,0.474,0.046,0.711,0.077c0.052,0.228,0.096,0.458,0.145,0.687l-21.16,22.767l18.849,3.441
					c-0.142,0.363-0.29,0.724-0.442,1.084l-19.333-3.529l-10.531,11.331l22.186,4.519c-0.256,0.292-0.515,0.582-0.779,0.866
					c-0.038,0.041-0.078,0.08-0.117,0.121l-22.205-4.523l-5.553,5.975l19.699,5.3c-0.434,0.285-0.873,0.563-1.317,0.833
					l-19.264-5.183l-10.796,11.616c-0.232-0.031-0.464-0.059-0.695-0.094c-0.037-0.243-0.071-0.487-0.103-0.731L393.13,291.304z"/>
			</g>
		</g>
		<g>
			<path style="fill:#307175;" d="M117.216,319.248c-4.689,2.216-9.548,4.055-14.526,5.519c-1.835,4.294-4.549,8.113-7.923,11.132
				c-0.644,0.577-1.335,1.137-2.168,1.36c-0.832,0.224-1.843,0.04-2.448-0.675c-0.6-0.707-0.661-1.767-0.365-2.604
				c0.297-0.837,0.89-1.495,1.493-2.107c2.588-2.627,5.596-4.79,8.877-6.398c-3.11,0.828-6.262,1.513-9.446,2.052
				c-1.831,4.157-4.494,7.855-7.78,10.796c-0.644,0.576-1.335,1.137-2.168,1.36c-0.832,0.224-1.843,0.04-2.448-0.675
				c-0.6-0.707-0.661-1.767-0.365-2.604c0.297-0.837,0.89-1.495,1.493-2.107c2.586-2.625,5.593-4.787,8.872-6.395
				c-3.157,0.46-6.342,0.778-9.543,0.955c-2.206,3.913-5.2,7.291-8.748,9.862c-0.697,0.505-1.44,0.99-2.295,1.128
				c-0.855,0.138-1.851-0.145-2.394-0.912c-0.538-0.759-0.505-1.813-0.132-2.61c0.372-0.797,1.026-1.389,1.685-1.934
				c2.823-2.332,6.024-4.166,9.448-5.427c-3.075,0.1-6.164,0.07-9.255-0.091c-2.576,3.564-5.867,6.529-9.624,8.657
				c-0.748,0.423-1.54,0.822-2.409,0.865c-0.87,0.044-1.841-0.344-2.311-1.159c-0.465-0.808-0.33-1.844,0.12-2.592
				c0.45-0.747,1.163-1.26,1.876-1.727c2.926-1.913,6.156-3.34,9.546-4.226c-3.022-0.234-6.043-0.594-9.055-1.077
				c-2.864,3.296-6.394,5.936-10.326,7.709c-0.783,0.353-1.609,0.677-2.484,0.643c-0.876-0.034-1.819-0.503-2.225-1.353
				c-0.403-0.841-0.185-1.856,0.326-2.556c0.511-0.7,1.266-1.145,2.018-1.544c3.124-1.656,6.522-2.789,10.038-3.359
				c-2.863-0.531-5.716-1.173-8.55-1.931c-3.21,2.923-7.022,5.121-11.147,6.416c-0.821,0.258-1.682,0.483-2.556,0.348
				c-0.874-0.134-1.77-0.706-2.09-1.591c-0.317-0.876,0.006-1.852,0.59-2.483c0.584-0.631,1.387-0.983,2.181-1.29
				c3.283-1.266,6.783-1.991,10.344-2.153c-1.692-0.498-3.377-1.037-5.053-1.617c-3.894,0.12-7.858-0.493-11.65-1.811
				c-0.849-0.295-1.713-0.64-2.395-1.273c-0.682-0.633-1.147-1.62-0.944-2.504c0.2-0.874,1.007-1.44,1.852-1.579
				c0.845-0.139,1.729,0.071,2.58,0.312c4.213,1.193,8.274,3.18,11.934,5.827c1.408,0.472,2.822,0.914,4.242,1.327
				c-3.327-1.951-6.387-4.465-9.005-7.416c-0.621-0.7-1.232-1.449-1.54-2.338c-0.308-0.888-0.251-1.953,0.356-2.572
				c0.601-0.613,1.598-0.646,2.425-0.306c0.827,0.34,1.52,0.989,2.169,1.645c3.336,3.374,6.115,7.364,8.154,11.699
				c3.076,0.817,6.174,1.497,9.284,2.043c-3.822-2.035-7.331-4.807-10.281-8.133c-0.621-0.7-1.232-1.449-1.54-2.338
				c-0.308-0.888-0.251-1.953,0.356-2.572c0.601-0.613,1.598-0.646,2.425-0.306c0.827,0.34,1.52,0.989,2.169,1.645
				c3.397,3.436,6.215,7.511,8.264,11.938c3.25,0.528,6.511,0.908,9.772,1.141c-3.764-2.027-7.221-4.769-10.133-8.051
				c-0.621-0.7-1.232-1.449-1.54-2.338c-0.308-0.888-0.251-1.953,0.356-2.572c0.601-0.613,1.598-0.646,2.425-0.306
				c0.827,0.34,1.52,0.989,2.169,1.645c3.34,3.378,6.122,7.374,8.162,11.715c3.44,0.201,6.878,0.237,10.299,0.111
				c-3.69-1.381-7.2-3.423-10.319-6.015c-0.713-0.592-1.423-1.236-1.861-2.07c-0.437-0.834-0.545-1.907-0.048-2.63
				c0.491-0.716,1.458-0.919,2.317-0.722c0.859,0.197,1.634,0.726,2.368,1.271c3.703,2.747,6.973,6.18,9.603,10.072
				c3.213-0.181,6.408-0.507,9.575-0.976c-3.876-1.381-7.566-3.488-10.828-6.199c-0.713-0.592-1.423-1.236-1.861-2.07
				c-0.437-0.834-0.545-1.907-0.048-2.63c0.492-0.716,1.458-0.919,2.317-0.722c0.859,0.197,1.634,0.726,2.368,1.271
				c3.713,2.754,6.991,6.199,9.625,10.104c3.49-0.572,6.942-1.319,10.341-2.242c-3.694-0.61-7.336-1.866-10.724-3.713
				c-0.801-0.437-1.609-0.924-2.191-1.661c-0.581-0.736-0.89-1.78-0.549-2.605c0.337-0.817,1.231-1.226,2.097-1.213
				c0.866,0.013,1.715,0.373,2.527,0.758c4.034,1.91,7.79,4.572,11.037,7.81c4.86-1.438,9.604-3.239,14.184-5.403L117.216,319.248z"
				/>
			<g>
				<path style="fill:#205656;" d="M128.077,313.715c-0.182,18.253-9.872,36.151-25.056,46.283s-35.431,12.207-52.355,5.367
					c0.705-23.88,19.255-45.487,42.401-51.405C104.431,311.054,116.918,310.103,128.077,313.715z"/>
				<path style="fill:#448C8C;" d="M110.901,324.325l-25.94-7.576c-0.661,0.287-1.316,0.588-1.966,0.9l26.369,7.701l-14.727,9.826
					l-25.393-8.26c-0.402,0.363-0.804,0.726-1.195,1.099l25.089,8.161l-9.156,6.109l-21.737-7.858
					c-0.304,0.389-0.598,0.786-0.892,1.182l21.166,7.651l-5.552,3.704l-19.342-5.649c-0.24,0.42-0.476,0.842-0.705,1.268
					l18.511,5.406l-24.718,16.492c-0.014,0.294-0.038,0.587-0.047,0.881c0.268,0.108,0.539,0.208,0.808,0.311l31.922-21.299
					l0.476,23.652c0.471-0.102,0.94-0.211,1.409-0.324l-0.488-24.259l15.887-10.6l1.132,27.931c0.406-0.255,0.81-0.513,1.209-0.779
					c0.058-0.038,0.113-0.079,0.171-0.118l-1.133-27.954l8.377-5.589l2.574,25.053c0.432-0.473,0.858-0.953,1.275-1.44
					l-2.517-24.501l16.287-10.867c0.008-0.289,0.02-0.577,0.023-0.865c-0.289-0.094-0.58-0.182-0.871-0.27L110.901,324.325z"/>
			</g>
			<path style="fill:#307175;" d="M154.39,325.929c-6.129-1.87-12.111-4.182-17.902-6.895c-5.158,2.077-10.749,3.073-16.307,2.895
				c-1.061-0.034-2.153-0.118-3.104-0.589s-1.739-1.416-1.724-2.477c0.014-1.051,0.811-1.968,1.76-2.42
				c0.949-0.453,2.029-0.526,3.08-0.553c4.513-0.119,9.042,0.474,13.377,1.735c-3.548-1.765-7.019-3.682-10.403-5.744
				c-5.046,1.967-10.491,2.905-15.904,2.732c-1.061-0.034-2.153-0.118-3.104-0.589c-0.951-0.471-1.739-1.416-1.724-2.477
				c0.014-1.051,0.811-1.968,1.76-2.42c0.949-0.453,2.029-0.526,3.08-0.553c4.51-0.119,9.037,0.473,13.369,1.733
				c-3.295-2.105-6.501-4.347-9.609-6.719c-5.196,1.472-10.69,1.887-16.048,1.205c-1.053-0.134-2.132-0.321-3.035-0.88
				c-0.903-0.559-1.597-1.574-1.483-2.629c0.113-1.045,0.993-1.882,1.98-2.243c0.987-0.361,2.07-0.332,3.118-0.26
				c4.494,0.307,8.937,1.321,13.124,2.979c-2.929-2.335-5.765-4.788-8.499-7.349c-5.258,0.896-10.694,0.739-15.889-0.471
				c-1.034-0.241-2.088-0.537-2.929-1.185c-0.841-0.648-1.428-1.729-1.207-2.767c0.22-1.028,1.18-1.771,2.199-2.029
				c1.019-0.258,2.093-0.119,3.129,0.06c4.252,0.732,8.393,2.102,12.247,4.041c-2.61-2.567-5.119-5.237-7.52-8.001
				c-5.308,0.45-10.705-0.161-15.775-1.799c-1.01-0.326-2.036-0.71-2.82-1.426c-0.784-0.716-1.279-1.842-0.971-2.858
				c0.305-1.006,1.324-1.666,2.361-1.838c1.037-0.172,2.095,0.057,3.113,0.321c4.228,1.099,8.288,2.841,12.004,5.138
				c-2.225-2.686-4.349-5.454-6.364-8.303c-5.328-0.128-10.63-1.323-15.494-3.504c-0.969-0.434-1.947-0.927-2.648-1.724
				c-0.701-0.797-1.071-1.97-0.655-2.947c0.412-0.967,1.497-1.512,2.547-1.571c1.049-0.058,2.077,0.284,3.059,0.658
				c4.061,1.543,7.887,3.7,11.316,6.366c-1.167-1.738-2.293-3.504-3.378-5.296c-3.703-2.963-6.882-6.581-9.332-10.642
				c-0.548-0.909-1.071-1.871-1.193-2.926c-0.122-1.055,0.243-2.229,1.142-2.794c0.89-0.559,2.092-0.389,2.988,0.161
				c0.896,0.55,1.544,1.417,2.139,2.284c2.941,4.289,5.102,9.11,6.36,14.156c0.924,1.493,1.878,2.967,2.86,4.422
				c-1.51-4.214-2.32-8.679-2.367-13.156c-0.011-1.061,0.026-2.156,0.456-3.126c0.43-0.971,1.341-1.798,2.402-1.828
				c1.051-0.03,2,0.727,2.493,1.655c0.492,0.929,0.612,2.005,0.684,3.054c0.372,5.387-0.268,10.841-1.872,15.997
				c2.191,3.087,4.513,6.08,6.953,8.972c-1.901-4.672-2.918-9.703-2.972-14.746c-0.011-1.062,0.026-2.156,0.456-3.126
				c0.43-0.971,1.341-1.798,2.402-1.828c1.051-0.03,2,0.727,2.493,1.655c0.493,0.929,0.612,2.005,0.684,3.053
				c0.379,5.486-0.294,11.04-1.963,16.279c2.585,2.987,5.3,5.862,8.132,8.616c-1.853-4.62-2.847-9.585-2.9-14.563
				c-0.011-1.062,0.026-2.156,0.456-3.126c0.43-0.971,1.341-1.798,2.402-1.828c1.051-0.03,2,0.726,2.493,1.655
				c0.493,0.929,0.612,2.005,0.684,3.054c0.372,5.394-0.27,10.855-1.878,16.016c3.025,2.869,6.179,5.601,9.45,8.186
				c-2.305-4.033-3.912-8.465-4.713-13.041c-0.183-1.046-0.323-2.132-0.056-3.159s1.032-1.991,2.074-2.193
				c1.032-0.2,2.092,0.393,2.728,1.229c0.636,0.837,0.928,1.879,1.169,2.903c1.217,5.162,1.48,10.546,0.781,15.803
				c3.121,2.377,6.344,4.621,9.655,6.726c-2.477-4.178-4.198-8.806-5.036-13.591c-0.183-1.046-0.323-2.132-0.056-3.159
				c0.267-1.027,1.032-1.991,2.074-2.193c1.032-0.2,2.092,0.393,2.728,1.23c0.636,0.837,0.928,1.879,1.169,2.902
				c1.22,5.176,1.482,10.576,0.775,15.846c3.693,2.275,7.492,4.376,11.385,6.291c-2.93-3.404-5.292-7.296-6.942-11.473
				c-0.39-0.987-0.746-2.023-0.692-3.083c0.055-1.06,0.609-2.158,1.589-2.566c0.97-0.404,2.128-0.037,2.92,0.654
				c0.792,0.691,1.288,1.654,1.73,2.607c2.198,4.736,3.532,9.87,3.931,15.076c5.661,2.642,11.505,4.895,17.491,6.722L154.39,325.929
				z"/>
			<g>
				<path style="fill:#448C8C;" d="M108.597,315.711c-12.24,8.294-28.627,10.092-42.374,4.65
					c-13.747-5.442-24.463-17.969-27.711-32.393c16.228-10.54,39.17-8.147,53.781,4.54
					C99.468,298.736,105.859,306.613,108.597,315.711z"/>
				<path style="fill:#205656;" d="M93.613,309.163L86.7,288.395c-0.496-0.308-0.998-0.605-1.506-0.894l7.028,21.111l-13.333-5.278
					l-6.206-20.719c-0.427-0.1-0.854-0.201-1.283-0.289l6.131,20.471l-8.289-3.281l-4.788-18.099
					c-0.399-0.023-0.799-0.036-1.199-0.049l4.662,17.624l-5.026-1.99l-5.155-15.485c-0.391,0.034-0.78,0.071-1.17,0.115l4.933,14.82
					l-22.379-8.859c-0.202,0.126-0.408,0.245-0.608,0.375c0.051,0.228,0.11,0.455,0.165,0.682l28.901,11.44l-15.532,11.22
					c0.285,0.267,0.574,0.529,0.865,0.788l15.931-11.508l14.384,5.694l-18.079,13.63c0.357,0.153,0.715,0.303,1.076,0.446
					c0.052,0.021,0.105,0.039,0.157,0.059l18.095-13.642l7.584,3.002l-15.498,13.264c0.515,0.07,1.03,0.132,1.547,0.185
					l15.156-12.972l14.746,5.837c0.196-0.128,0.393-0.253,0.587-0.384c-0.071-0.236-0.146-0.47-0.222-0.704L93.613,309.163z"/>
			</g>
		</g>
	</g>
	<g>
		<g>
			<g>
				<g>
					<path style="fill:#BBCAEA;" d="M195.828,197.721c-0.315,0-0.599,0.654-0.729,1.975v3.359c0.131,1.32,0.415,1.974,0.737,1.974
						c0.323,0,0.599-0.653,0.737-1.974v-3.359C196.435,198.375,196.159,197.721,195.828,197.721z"/>
				</g>
			</g>
		</g>
		<g>
			<g>
				<g>
					<path style="fill:#BBCAEA;" d="M195.828,183.106c-0.315,0-0.599,0.654-0.729,1.975v3.359c0.131,1.32,0.415,1.974,0.737,1.974
						c0.323,0,0.599-0.653,0.737-1.974v-3.359C196.435,183.759,196.159,183.106,195.828,183.106z"/>
				</g>
			</g>
		</g>
		<g>
			<g>
				<g>
					<path style="fill:#BBCAEA;" d="M195.828,168.49c-0.315,0-0.599,0.654-0.729,1.975v3.359c0.131,1.32,0.415,1.974,0.737,1.974
						c0.323,0,0.599-0.653,0.737-1.974v-3.359C196.435,169.144,196.159,168.49,195.828,168.49z"/>
				</g>
			</g>
		</g>
		<g>
			<g>
				<g>
					<path style="fill:#BBCAEA;" d="M195.828,153.874c-0.315,0-0.599,0.654-0.729,1.975v3.359c0.131,1.32,0.415,1.974,0.737,1.974
						c0.323,0,0.599-0.653,0.737-1.974v-3.359C196.435,154.528,196.159,153.874,195.828,153.874z"/>
				</g>
			</g>
		</g>
		<g>
			<g>
				<g>
					<path style="fill:#BBCAEA;" d="M195.828,139.258c-0.315,0-0.599,0.654-0.729,1.975v3.359c0.131,1.32,0.415,1.974,0.737,1.974
						c0.323,0,0.599-0.653,0.737-1.974v-3.359C196.435,139.912,196.159,139.258,195.828,139.258z"/>
				</g>
			</g>
		</g>
		<g>
			<g>
				<g>
					<path style="fill:#BBCAEA;" d="M210.358,139.157c0-0.315-0.654-0.599-1.975-0.73h-3.359c-1.32,0.131-1.974,0.415-1.974,0.738
						c0,0.322,0.654,0.599,1.974,0.737h3.359C209.704,139.763,210.358,139.487,210.358,139.157z"/>
				</g>
			</g>
		</g>
		<g>
			<g>
				<g>
					<path style="fill:#BBCAEA;" d="M224.974,139.157c0-0.315-0.654-0.599-1.975-0.73h-3.359c-1.32,0.131-1.974,0.415-1.974,0.738
						c0,0.322,0.654,0.599,1.974,0.737h3.359C224.32,139.763,224.974,139.487,224.974,139.157z"/>
				</g>
			</g>
		</g>
		<g>
			<g>
				<g>
					<path style="fill:#BBCAEA;" d="M239.589,139.157c0-0.315-0.654-0.599-1.975-0.73h-3.359c-1.32,0.131-1.974,0.415-1.974,0.738
						c0,0.322,0.654,0.599,1.974,0.737h3.359C238.936,139.763,239.589,139.487,239.589,139.157z"/>
				</g>
			</g>
		</g>
		<g>
			<g>
				<g>
					<path style="fill:#BBCAEA;" d="M254.205,139.157c0-0.315-0.654-0.599-1.975-0.73h-3.359c-1.32,0.131-1.974,0.415-1.974,0.738
						c0,0.322,0.654,0.599,1.974,0.737h3.359C253.552,139.763,254.205,139.487,254.205,139.157z"/>
				</g>
			</g>
		</g>
		<g>
			<g>
				<g>
					<path style="fill:#BBCAEA;" d="M268.821,139.157c0-0.315-0.654-0.599-1.975-0.73h-3.359c-1.32,0.131-1.974,0.415-1.974,0.738
						c0,0.322,0.654,0.599,1.974,0.737h3.359C268.167,139.763,268.821,139.487,268.821,139.157z"/>
				</g>
			</g>
		</g>
		<g>
			<g>
				<g>
					<path style="fill:#BBCAEA;" d="M283.437,139.157c0-0.315-0.654-0.599-1.975-0.73h-3.359c-1.32,0.131-1.974,0.415-1.974,0.738
						c0,0.322,0.654,0.599,1.974,0.737h3.359C282.783,139.763,283.437,139.487,283.437,139.157z"/>
				</g>
			</g>
		</g>
		<g>
			<g>
				<g>
					<path style="fill:#BBCAEA;" d="M298.052,139.157c0-0.315-0.654-0.599-1.975-0.73h-3.359c-1.32,0.131-1.974,0.415-1.974,0.738
						c0,0.322,0.654,0.599,1.974,0.737h3.359C297.399,139.763,298.052,139.487,298.052,139.157z"/>
				</g>
			</g>
		</g>
		<g>
			<g>
				<g>
					<path style="fill:#BBCAEA;" d="M312.668,139.157c0-0.315-0.654-0.599-1.975-0.73h-3.359c-1.32,0.131-1.974,0.415-1.974,0.738
						c0,0.322,0.654,0.599,1.974,0.737h3.359C312.015,139.763,312.668,139.487,312.668,139.157z"/>
				</g>
			</g>
		</g>
		<g>
			<g>
				<g>
					<path style="fill:#BBCAEA;" d="M327.284,139.157c0-0.315-0.654-0.599-1.975-0.73h-3.359c-1.32,0.131-1.974,0.415-1.974,0.738
						c0,0.322,0.654,0.599,1.974,0.737h3.359C326.63,139.763,327.284,139.487,327.284,139.157z"/>
				</g>
			</g>
		</g>
		<g>
			<g>
				<g>
					<path style="fill:#BBCAEA;" d="M341.9,139.157c0-0.315-0.654-0.599-1.975-0.73h-3.359c-1.32,0.131-1.974,0.415-1.974,0.738
						c0,0.322,0.654,0.599,1.974,0.737h3.359C341.246,139.763,341.9,139.487,341.9,139.157z"/>
				</g>
			</g>
		</g>
		<g>
			<g>
				<g>
					<path style="fill:#BBCAEA;" d="M356.516,139.157c0-0.315-0.654-0.599-1.975-0.73h-3.359c-1.32,0.131-1.974,0.415-1.974,0.738
						c0,0.322,0.654,0.599,1.974,0.737h3.359C355.862,139.763,356.516,139.487,356.516,139.157z"/>
				</g>
			</g>
		</g>
		<g>
			<g>
				<g>
					<path style="fill:#BBCAEA;" d="M360.91,149.394c0.315,0,0.599-0.654,0.729-1.975v-3.358c-0.131-1.321-0.415-1.974-0.737-1.974
						c-0.323,0-0.599,0.653-0.737,1.974v3.358C360.303,148.74,360.579,149.394,360.91,149.394z"/>
				</g>
			</g>
		</g>
		<g>
			<g>
				<g>
					<path style="fill:#BBCAEA;" d="M360.91,164.009c0.315,0,0.599-0.654,0.729-1.975v-3.358c-0.131-1.321-0.415-1.974-0.737-1.974
						c-0.323,0-0.599,0.653-0.737,1.974v3.358C360.303,163.356,360.579,164.009,360.91,164.009z"/>
				</g>
			</g>
		</g>
		<g>
			<g>
				<g>
					<path style="fill:#BBCAEA;" d="M360.91,178.625c0.315,0,0.599-0.654,0.729-1.975v-3.358c-0.131-1.321-0.415-1.974-0.737-1.974
						c-0.323,0-0.599,0.653-0.737,1.974v3.358C360.303,177.971,360.579,178.625,360.91,178.625z"/>
				</g>
			</g>
		</g>
		<g>
			<g>
				<g>
					<path style="fill:#BBCAEA;" d="M360.91,190.582c0.315,0,0.599-0.416,0.729-1.257v-2.136c-0.131-0.84-0.415-1.256-0.737-1.256
						c-0.323,0-0.599,0.416-0.737,1.256v2.136C360.303,190.166,360.579,190.582,360.91,190.582z"/>
				</g>
			</g>
		</g>
	</g>
	<g>
		<path style="fill:#5BA5F4;" d="M376.294,389.206H128.061c-5.251,0-9.547-4.296-9.547-9.547V215.067
			c0-5.251,4.296-9.547,9.547-9.547h248.233c5.251,0,9.547,4.296,9.547,9.547v164.592
			C385.841,384.91,381.545,389.206,376.294,389.206z"/>
		<rect x="87.852" y="384.905" style="fill:#4A9BE5;" width="329.724" height="5.914"/>
		<path style="fill:#184785;" d="M324.126,390.82H87.855c0,0,7.883,5.353,22.841,5.353c14.958,0,213.431,0,213.431,0
			s55.652,0,70.61,0c14.958,0,22.84-5.353,22.84-5.353H324.126z"/>
		<path style="fill:#A9CBF7;" d="M376.509,373.394H129.333c-0.722,0-1.308-0.585-1.308-1.308v-154.83
			c0-0.722,0.585-1.308,1.308-1.308h247.177c0.722,0,1.308,0.585,1.308,1.308v154.83
			C377.817,372.809,377.231,373.394,376.509,373.394z"/>
		<path style="fill:#184785;" d="M280.361,384.905c-0.214,1.166-0.785,2.219-1.594,3.028c-1.047,1.041-2.487,1.69-4.069,1.69
			h-43.192c-2.814,0-5.17-2.047-5.664-4.718H280.361z"/>
	</g>
	<g>
		<g>
			<path style="fill:#F89D13;" d="M358.473,106.104l-25.774,5.579c-1.196,0.259-2.375-0.501-2.634-1.697l-5.579-25.774
				c-0.259-1.196,0.501-2.375,1.697-2.634l25.774-5.579c1.196-0.259,2.375,0.501,2.634,1.697l5.579,25.774
				C360.429,104.666,359.669,105.845,358.473,106.104z"/>
			<polygon style="fill:#F9FBFC;" points="351.868,91.776 334.061,86.064 338.017,104.341 			"/>
		</g>
		<g>
			<g>
				<g>
					<path style="fill:#297EEC;" d="M314.91,114.592l0.265,36.823c0.019,2.58-2.058,4.686-4.637,4.704l-21.113,0.152
						c-2.58,0.019-4.686-2.058-4.704-4.637l-0.246-34.204l7.031-7.341l18.7-0.134C312.786,109.936,314.892,112.012,314.91,114.592z"
						/>
				</g>
			</g>
			<polygon style="fill:#85CCE5;" points="291.506,110.089 291.559,117.379 284.475,117.43 			"/>
			<g>
				
					<rect x="290.181" y="119.328" transform="matrix(1 -0.0072 0.0072 1 -0.8518 2.1561)" style="fill:#E2EDF2;" width="19.075" height="0.641"/>
				
					<rect x="290.209" y="123.175" transform="matrix(1 -0.0072 0.0072 1 -0.8795 2.1568)" style="fill:#E2EDF2;" width="19.075" height="0.641"/>
				
					<rect x="290.237" y="127.022" transform="matrix(1 -0.0072 0.0072 1 -0.9072 2.1571)" style="fill:#E2EDF2;" width="19.075" height="0.641"/>
				
					<rect x="290.264" y="130.869" transform="matrix(1 -0.0072 0.0072 1 -0.9347 2.157)" style="fill:#E2EDF2;" width="19.075" height="0.641"/>
				
					<rect x="290.292" y="134.716" transform="matrix(1 -0.0072 0.0072 1 -0.9622 2.1572)" style="fill:#E2EDF2;" width="19.075" height="0.641"/>
				
					<rect x="290.32" y="138.563" transform="matrix(1 -0.0072 0.0072 1 -0.9901 2.158)" style="fill:#E2EDF2;" width="19.075" height="0.641"/>
				
					<rect x="290.347" y="142.41" transform="matrix(1 -0.0072 0.0072 1 -1.0176 2.1579)" style="fill:#E2EDF2;" width="19.075" height="0.641"/>
				
					<rect x="290.375" y="146.257" transform="matrix(1 -0.0072 0.0072 1 -1.0454 2.1585)" style="fill:#E2EDF2;" width="19.075" height="0.641"/>
			</g>
		</g>
		<g>
			<g>
				<g>
					<path style="fill:#184785;" d="M373.645,173.21l-40.089-12.861c-1.396-0.448-2.164-1.942-1.717-3.338l7.833-24.415
						c0.448-1.396,1.942-2.164,3.338-1.717L383.1,143.74c1.396,0.448,2.164,1.942,1.717,3.338l-7.833,24.415
						C376.536,172.889,375.041,173.658,373.645,173.21z"/>
				</g>
			</g>
			<g>
				<g>
					<g>
						<path style="fill:#FFFFFF;" d="M372.002,166.266l-6.999-2.245l-5.093-9.916l4.408-2.267c0.628-0.323,1.401-0.076,1.726,0.546
							l6.692,13.015C372.983,165.888,372.519,166.432,372.002,166.266z"/>
					</g>
				</g>
				<g>
					<g>
						<path style="fill:#FFFFFF;" d="M362.67,163.273l-23.736-7.615c-0.522-0.167-0.581-0.882-0.094-1.133l14.149-7.285
							c0.631-0.321,1.398-0.075,1.724,0.553L362.67,163.273z"/>
					</g>
				</g>
				<g>
					<g>
						<path style="fill:#FFFFFF;" d="M364.713,147.438c-0.509,1.588-2.215,2.465-3.803,1.956c-1.592-0.511-2.465-2.215-1.956-3.803
							c0.511-1.592,2.213-2.471,3.805-1.96C364.347,144.14,365.224,145.846,364.713,147.438z"/>
					</g>
				</g>
			</g>
		</g>
		<g>
			<g>
				<g>
					<path style="fill:#F89D13;" d="M266.694,150.935h-24.978c-1.221,0-2.21-0.99-2.21-2.21v-21.324c0-1.221,0.99-2.21,2.21-2.21
						h24.978c1.221,0,2.21,0.99,2.21,2.21v21.324C268.904,149.945,267.915,150.935,266.694,150.935z"/>
				</g>
			</g>
			<g>
				<g>
					<g>
						<path style="fill:#FFFFFF;" d="M250.984,132.664c2.376-2.376,6.243-2.376,8.619,0c2.376,2.376,2.376,6.243,0,8.619
							c-2.376,2.376-6.243,2.376-8.619,0S248.608,135.041,250.984,132.664z M253.003,134.683c-1.263,1.263-1.263,3.319,0,4.583
							c1.263,1.263,3.319,1.263,4.583,0c1.263-1.263,1.263-3.319,0-4.583C256.322,133.419,254.266,133.419,253.003,134.683z"/>
					</g>
				</g>
				<g>
					<g>
						<path style="fill:#FFFFFF;" d="M247.443,144.825c0.557,0.557,1.461,0.557,2.018,0l3.542-3.542
							c0.557-0.557,0.557-1.461,0-2.018s-1.461-0.557-2.018,0l-3.542,3.542C246.885,143.364,246.885,144.268,247.443,144.825z"/>
					</g>
				</g>
			</g>
		</g>
	</g>
	<g>
		<path style="fill:#5BA5F4;" d="M97.908,244.881c1.635,0,2.962-1.327,2.962-2.962v-20.954c0-1.636-1.327-2.961-2.962-2.961h-7.899
			c-1.636,0-2.961,1.326-2.961,2.961v20.954c0,1.636,1.325,2.962,2.961,2.962H97.908z"/>
		<path style="fill:#5BA5F4;" d="M97.908,274.276c1.635,0,2.962-1.327,2.962-2.962V250.36c0-1.635-1.327-2.961-2.962-2.961h-7.899
			c-1.636,0-2.961,1.327-2.961,2.961v20.954c0,1.636,1.325,2.962,2.961,2.962H97.908z"/>
		<path style="fill:#1E2633;" d="M89.976,377.02c0,5.219,3.696,9.448,8.253,9.448h80.429c4.558,0,8.253-4.23,8.253-9.448V209.047
			c0-5.219-3.695-9.448-8.253-9.448H98.229c-4.557,0-8.253,4.23-8.253,9.448V377.02z"/>
		<rect x="93.959" y="213.595" style="fill:#5BA5F4;" width="88.969" height="149.192"/>
		<path style="fill:#5BA5F4;" d="M128.47,207.296c0,1.353,1.097,2.45,2.45,2.45h15.047c1.354,0,2.45-1.096,2.45-2.45l0,0
			c0-1.352-1.096-2.449-2.45-2.449H130.92C129.567,204.847,128.47,205.944,128.47,207.296L128.47,207.296z"/>
		<path style="fill:#5BA5F4;" d="M125.005,379.219c0,1.636,1.327,2.961,2.962,2.961h20.953c1.636,0,2.962-1.326,2.962-2.961v-7.899
			c0-1.636-1.327-2.962-2.962-2.962h-20.953c-1.636,0-2.962,1.327-2.962,2.962V379.219z"/>
	</g>
	<g>
		<g>
			<path style="fill:#0F335B;" d="M154.819,79.212c0,0-6.007-4.322-12.725,1.795c-4.015,3.656-3.027,8.92-4.643,17.406
				c-0.388,2.037-4.733,2.627-6.465,6.177c-0.835,1.712-0.038,6.471-0.982,7.677c-4.137,5.281-1.792,10.983,2.015,12.976
				c13.296,6.961,16.502-1.264,19.879-5.68C155.274,115.148,161.159,89.058,154.819,79.212z"/>
			<path style="fill:#0F335B;" d="M154.347,100.993c0,0,3.741-0.854,5.472-5.472s0.657-12.152-0.498-13.191
				C158.167,81.29,154.347,100.993,154.347,100.993z"/>
			<path style="fill:#0F335B;" d="M145.879,98.305l-1.537-3.535l1.052,0.636c0,0,0.499,1.388,0.692,2.281
				C146.279,98.58,145.879,98.305,145.879,98.305z"/>
			<path style="fill:#FE7D6B;" d="M145.811,94.253c0,0.401,0,15.862,0,15.862s1.728,2.083,4.308,2.083
				c2.58,0,4.487-2.083,4.487-2.083v-9.98L145.811,94.253z"/>
			<path style="fill:#FE7D6B;" d="M152.254,103.138c-4.089,0.069-6.795-3.855-6.86-7.733l-0.104-6.149
				c-0.066-3.878,2.893-7.072,6.608-7.135l0,0c3.715-0.063,6.781,3.029,6.846,6.907l-0.061,6.132
				C158.75,99.038,156.344,103.069,152.254,103.138z"/>
			<path style="fill:#FE7D6B;" d="M143.282,93.996c0.533,1.1,1.638,1.666,2.468,1.264c1.544-0.747,0.924-1.953,0.391-3.053
				c-0.533-1.1-1.279-1.462-2.32-0.932C143,91.694,142.75,92.895,143.282,93.996z"/>
			<path style="fill:#DEAC93;" d="M143.658,92.863c0.01-0.303,0.103-0.675,0.375-0.848c0.236-0.15,0.621-0.061,0.692,0.23
				c0.014,0.057-0.078,0.092-0.099,0.035c-0.051-0.138-0.195-0.199-0.335-0.169c-0.148,0.032-0.257,0.164-0.316,0.295
				c-0.127,0.282-0.119,0.624-0.037,0.917c0.083,0.297,0.26,0.587,0.509,0.774c0.115,0.087,0.254,0.15,0.399,0.164
				c0.123,0.012,0.287-0.014,0.387-0.089c0.041-0.031,0.118,0.003,0.093,0.061c-0.054,0.124-0.142,0.224-0.278,0.255
				c-0.143,0.033-0.302,0.008-0.439-0.041c-0.309-0.109-0.548-0.361-0.71-0.639C143.732,93.525,143.648,93.192,143.658,92.863z"/>
			<path style="fill:#0F335B;" d="M154.819,79.212c0,0,3.002-1.732,5.195,4.387c1.628,4.541-1.284,8.082-1.284,8.082
				s0.216-3.767-0.736-5.758c-0.476-0.996-2.078-1.169-2.078-1.169L154.819,79.212z"/>
			<path style="fill:#0F335B;" d="M155.916,84.754c0,0-3.247-1.559-4.633,0.866s-2.814,5.542-7.663,6.408
				c-4.849,0.866-4.178-4.505,0.325-7.622C148.447,81.288,156.616,78.413,155.916,84.754z"/>
			<path style="fill:#0F335B;" d="M137.067,100.454l0.19-0.042c-1.565-7.164-0.195-11.915,1.23-14.64
				c1.629-3.114,3.741-4.477,4.089-4.616l-0.072-0.181c-0.434,0.173-2.542,1.556-4.19,4.707
				C136.874,88.436,135.489,93.233,137.067,100.454z"/>
			<g>
				<path style="fill:#184785;" d="M220.895,263.886l0.624,1.049c0,0,17.973,8.593,21.154,4.422
					c3.181-4.171-11.579-9.888-11.579-9.888L220.895,263.886z"/>
				<path style="fill:#FE7D6B;" d="M213.455,249.244l7.44,14.642c0,0,15.897,6.035,17.861,2.677
					c1.964-3.358-13.077-9.651-13.077-9.651l-3.36-13.062L213.455,249.244z"/>
				<path style="fill:#184785;" d="M180.552,213.546l-0.654,1.031c0,0,0.454,19.916,5.613,20.869
					c5.158,0.953,3.589-14.797,3.589-14.797L180.552,213.546z"/>
				<path style="fill:#FE7D6B;" d="M190.253,200.293l-9.701,13.253c0,0,1.799,16.908,5.682,17.143
					c3.883,0.235,2.701-16.027,2.701-16.027l10.134-8.899L190.253,200.293z"/>
				<path style="fill:#1E2633;" d="M170.102,164.706l1.32-0.242c0,0,35.941-26.323,52.032-15.766
					c19.947,13.086-22.626,63.59-22.626,63.59l-14.077-9.584l5.27-20.526l-43.874,9.544l3.157-29.878L170.102,164.706z"/>
				<path style="fill:#184785;" d="M133.264,164.797c0,0-6.556,10.745-5.163,27.596c1.361,16.47,55.993,16.47,55.993,16.47
					l28.5,45.322l14.931-3.03c0,0-12.913-66.371-18.462-70.135s-46.392-7.936-46.392-7.936l-1.503-9.404L133.264,164.797z"/>
				<path style="fill:#F89D13;" d="M210.96,61.858c-6.872,17.422-19.931,37.391-32.312,50.992
					c-4.544,4.988-8.99,9.118-13.006,11.959l-6.624-17.083l-0.829-2.14l2.08-1.861l0.377-0.339l24-21.469l15.606-25.794
					L210.96,61.858z"/>
				<path style="fill:#F89D13;" d="M185.147,164.792c-1.839-8.304-4.684-18.121-9.192-28.749
					c-5.411-12.76-11.69-23.085-17.278-30.972c-3.788,1.168-7.575,2.337-11.363,3.505c7.673,20.017,15.346,40.034,23.02,60.051
					L185.147,164.792z"/>
				<path style="fill:#FFFFFF;" d="M177.212,164.792c-1.441-7.852-3.605-16.771-6.893-26.376
					c-4.306-12.579-9.454-23.16-14.301-31.652c-1.092,0.301-2.94,0.66-5.198,0.363c-1.871-0.246-3.327-0.851-4.26-1.33
					c-7.525,1.813-15.05,3.626-22.575,5.44c9.807,20.38,19.614,40.759,29.42,61.139L177.212,164.792z"/>
				<path style="fill:#F89D13;" d="M162.753,166.025c-1.523,2.824-3.628,5.953-6.558,8.961c-10.88,11.167-25.284,12.608-30.4,12.87
					c2.37-10.788,4.74-21.577,7.11-32.365c-1.191-10.6-2.381-21.2-3.572-31.8l2.381-11.273c4.311-2.053,8.621-4.107,12.932-6.16
					c3.737,8.119,7.513,17.578,10.812,28.298C158.999,146.061,161.275,156.694,162.753,166.025z"/>
				<g>
					<path style="fill:#EA6759;" d="M151.376,135.672l0.972-7.098l4.364-2.248c0,0,2.164,0.365,1.253,3.163
						C157.054,132.285,151.376,135.672,151.376,135.672"/>
					<path style="fill:#FE7D6B;" d="M148.625,137.342l2.751-1.67l3.545-5.902l4.755-2.38c0.281-0.141,0.622-0.013,0.742,0.277
						c0.602,0.511,0.933,1.253,0.938,2.274c1.07,0.894,1.274,1.896,0.792,2.984c1.475,0.626,2.028,1.396,1.593,2.321
						c0.663,1.085,1.053,2.127,0.789,3.399l-7.316,5.287l-7.187,2.659L148.625,137.342z"/>
				</g>
				<path style="fill:#F89D13;" d="M144.646,106.257c-5.691,0.93-11.382,1.861-17.073,2.791c-5.244,0.626-9.673,4.159-11.488,9.118
					c-4.592,12.543-7.703,25.982-8.447,37.52c-0.472,7.317,6.281,13.009,13.439,11.418c11.743-2.609,21.339-10.201,29.86-19.066
					l-1.411-12.168l-23.982,11.462C131.911,133.641,138.279,119.949,144.646,106.257z"/>
				<path style="fill:#D37E0D;" d="M133.237,128.895c-0.54,1.571-1.122,3.125-1.714,4.676c-0.583,1.554-1.216,3.088-1.821,4.632
					l-1.913,4.595c-0.66,1.522-1.324,3.043-2.041,4.543l-0.273-0.111c0.532-1.575,1.116-3.128,1.704-4.68l1.831-4.628
					c0.643-1.53,1.259-3.07,1.923-4.591c0.657-1.524,1.323-3.044,2.03-4.547L133.237,128.895z"/>
				<path style="fill:#D37E0D;" d="M125.596,147.106c1.955-1.019,3.917-2.023,5.893-2.996c1.97-0.987,3.963-1.926,5.943-2.892
					l5.986-2.802c2.006-0.912,4.013-1.82,6.045-2.678l0.127,0.266c-1.946,1.037-3.917,2.023-5.889,3.006l-5.948,2.882
					c-1.998,0.929-3.983,1.884-5.99,2.792c-2.001,0.921-4.017,1.812-6.04,2.688L125.596,147.106z"/>
				<g style="opacity:0.3;">
					<path style="fill:#1F3C88;" d="M151.01,115.873c1.226,0.984,2.758,1.495,4.26,1.396c1.502-0.102,2.946-0.797,4.055-1.912
						l0.233,0.18c-0.867,1.435-2.522,2.382-4.241,2.48c-1.718,0.1-3.465-0.634-4.515-1.936L151.01,115.873z"/>
					<path style="fill:#1F3C88;" d="M161.976,152.378c0.947-0.946,1.791-1.98,2.504-3.095c0.706-1.119,1.318-2.297,1.756-3.544
						c0.46-1.237,0.782-2.525,0.955-3.836c0.186-1.31,0.213-2.643,0.117-3.979l0.291-0.043c0.298,1.335,0.36,2.723,0.246,4.094
						c-0.126,1.371-0.435,2.727-0.909,4.022c-0.496,1.285-1.121,2.527-1.93,3.642c-0.801,1.119-1.75,2.131-2.837,2.96
						L161.976,152.378z"/>
					<path style="fill:#1F3C88;" d="M163.792,152.743c1.072-0.752,2.101-1.515,3.059-2.37c0.963-0.849,1.848-1.77,2.746-2.726
						l0.241,0.169c-0.604,1.195-1.485,2.239-2.493,3.121c-1.014,0.875-2.163,1.608-3.417,2.068L163.792,152.743z"/>
				</g>
				<polygon style="fill:#184785;" points="224.797,265.915 225.39,267.856 223.257,268.109 221.519,264.934 				"/>
				<polygon style="fill:#184785;" points="180.505,217.943 179.041,219.35 177.852,217.561 179.899,214.576 				"/>
				<path style="fill:#7FABD3;" d="M143.89,172.064c0.819-2.853,30.866-4.181,30.866-4.181l-13.585,10.236
					C161.171,178.119,143.07,174.916,143.89,172.064z"/>
				<path style="fill:#93BBE5;" d="M161.171,178.119l46.932-1.525l7.732-24.408c0.444-1.465-0.652-2.944-2.183-2.944h-41.023
					c-1.603,0-3.017,1.049-3.482,2.582L161.171,178.119z"/>
				
					<ellipse transform="matrix(0.9916 -0.1297 0.1297 0.9916 -19.5281 26.1902)" style="fill:#7FABD3;" cx="191.338" cy="163.042" rx="1.854" ry="1.854"/>
			</g>
		</g>
		<g>
			<g>
				<path style="fill:#C6493C;" d="M154.648,95.419c0.009,0,0.018-0.001,0.028-0.002c0.253-0.036,1.52-0.248,1.593-0.932
					c0.064-0.598-0.916-2.404-1.113-2.76c-0.052-0.095-0.171-0.129-0.266-0.076c-0.094,0.052-0.129,0.171-0.076,0.266
					c0.433,0.782,1.105,2.161,1.066,2.529c-0.03,0.283-0.769,0.517-1.259,0.586c-0.107,0.015-0.181,0.114-0.166,0.221
					C154.468,95.349,154.552,95.419,154.648,95.419z"/>
			</g>
			<g>
				<path style="fill:#363435;" d="M157.726,92.012c0.026,0.334-0.199,0.623-0.502,0.646c-0.303,0.023-0.569-0.228-0.595-0.562
					c-0.026-0.334,0.199-0.623,0.502-0.646C157.435,91.427,157.701,91.679,157.726,92.012z"/>
			</g>
			<g>
				<path d="M150.869,90.475c0.047,0,0.093-0.017,0.131-0.05c0.847-0.761,1.935-0.208,1.946-0.203
					c0.096,0.05,0.214,0.013,0.264-0.083c0.05-0.096,0.013-0.214-0.083-0.264c-0.054-0.028-1.342-0.681-2.388,0.259
					c-0.08,0.072-0.087,0.196-0.015,0.276C150.762,90.453,150.816,90.475,150.869,90.475z"/>
			</g>
			<g>
				<path d="M156.268,89.985c0.042,0,0.085-0.014,0.12-0.042l0,0c0.028-0.022,0.698-0.532,1.364-0.061
					c0.088,0.062,0.211,0.041,0.273-0.047c0.062-0.088,0.041-0.21-0.047-0.273c-0.727-0.512-1.516-0.176-1.832,0.073
					c-0.085,0.067-0.099,0.19-0.032,0.275C156.153,89.959,156.21,89.985,156.268,89.985z"/>
			</g>
			<g>
				<path style="fill:#D65E42;" d="M152.718,96.571c2.703,0.504,3.855-0.026,3.855-0.026s0.158,1.677-1.405,1.884
					C152.932,98.725,152.718,96.571,152.718,96.571z"/>
			</g>
			<g>
				<path style="fill:#FFFFFF;" d="M156.481,96.581c0,0-0.057,0.313-0.082,0.377c-0.026,0.062-0.279,0.254-1.373,0.36
					c-0.925,0.091-1.899-0.141-2.174-0.214c-0.111-0.3-0.133-0.531-0.133-0.531c0.158,0.03,0.311,0.055,0.459,0.077
					c1.963,0.303,3,0.034,3.301-0.069C156.481,96.581,156.481,96.581,156.481,96.581z"/>
			</g>
			<g>
				
					<ellipse transform="matrix(0.9971 -0.0766 0.0766 0.9971 -6.6457 11.9635)" style="fill:#363435;" cx="152.581" cy="92.586" rx="0.566" ry="0.624"/>
			</g>
		</g>
		<g>
			<path style="fill:#FE7D6B;" d="M210.586,58.102c0.454-0.214,0.867-0.439,1.252-0.68c1.83-1.144,2.971-2.627,4.285-4.738
				c0.604-0.972,0.115-1.801-0.536-1.755c0.446-0.681,0.844-1.403,1.185-2.175c0.496-1.108-0.359-1.826-1.112-1.525
				c0.188-0.354,0.366-0.72,0.533-1.102c0.658-1.512-0.936-2.259-1.599-0.732c-0.887,2.043-2.338,3.486-3.977,4.793
				c1.124-1.18,2.135-2.481,3.028-3.889c0.826-1.307-0.787-2.334-1.61-1.032c-1.557,2.455-3.798,4.448-6.276,6.042
				c0.338-0.865,0.762-1.688,1.348-2.428c0.955-1.203-0.638-2.238-1.604-1.025c-1.99,2.512-3.03,4.504-3.963,7.584
				c-0.008,0.023-0.007,0.045-0.013,0.071l-1.034,1.372c2.954,1.34,5.822,2.842,8.628,4.455
				C210.046,59.328,210.586,58.102,210.586,58.102z"/>
			<g id="XMLID_00000101790773130315306680000000496876250582355333_">
				<path style="fill:#995033;" d="M210.908,50.058l-0.106-0.128c-0.03,0.025-2.995,2.468-3.963,2.492l0.004,0.166
					c0.354-0.008,0.932-0.3,1.544-0.682C209.548,51.179,210.827,50.125,210.908,50.058z"/>
			</g>
			<g id="XMLID_00000093143612675450104030000010668793447545300354_">
				<path style="fill:#995033;" d="M215.727,47.279l-0.136-0.095c-0.035,0.05-3.514,4.995-7.199,6.582l0.066,0.153
					c0.43-0.185,0.856-0.414,1.275-0.676C212.948,51.231,215.696,47.324,215.727,47.279z"/>
			</g>
			<g id="XMLID_00000041264308509855124590000017811337695401834931_">
				<path style="fill:#995033;" d="M215.652,50.983l-0.126-0.108c-0.04,0.046-3.965,4.635-5.575,4.356l-0.028,0.164
					c0.414,0.072,0.957-0.142,1.543-0.508C213.286,53.748,215.528,51.128,215.652,50.983z"/>
			</g>
		</g>
	</g>
	<g>
		<g>
			<g>
				<path style="fill:#CC724A;" d="M275.496,242.633c-0.526,0.063-1.023,0.093-1.502,0.093c-2.28,0-4.133-0.688-6.492-1.843
					c-1.085-0.533-1.112-1.549-0.503-1.873c-0.781-0.361-1.542-0.784-2.28-1.284c-1.066-0.715-0.702-1.836,0.142-1.989
					c-0.367-0.212-0.731-0.44-1.095-0.688c-1.436-0.986-0.427-2.548,1.022-1.552c1.939,1.333,4.047,1.813,6.247,2.065
					c-1.668-0.427-3.303-1.026-4.891-1.787c-1.473-0.708-0.602-2.531,0.863-1.827c2.77,1.327,5.893,1.856,9.007,1.896
					c-0.788-0.586-1.628-1.085-2.568-1.42c-1.529-0.543-0.682-2.363,0.863-1.817c3.19,1.135,5.237,2.336,7.799,4.573
					c0.02,0.017,0.031,0.036,0.051,0.056l1.694,0.649c-1.895,2.855-3.622,5.807-5.232,8.824
					C276.666,243.429,275.496,242.633,275.496,242.633z"/>
				<path style="fill:#CC724A;" d="M283.854,235.887l26.319,10.088l1.396-5.844l16.121,2.356c0,0-1.643,11.204-5.283,18.143v0.003
					c-0.662,1.247-1.329,2.359-2.103,3.243c-1.208,1.377-4.35,0.893-8.483-0.639c-10.262-3.808-26.447-14.097-33.2-18.527
					C280.231,241.694,281.959,238.743,283.854,235.887z"/>
				<g id="XMLID_00000128479551559850728400000004369458765257928597_">
					<polygon style="fill:#995033;" points="310.181,245.974 315.855,249.583 310.824,243.296 					"/>
				</g>
				<g id="XMLID_00000002362276179326520840000006330806809861789066_">
					<path style="fill:#995033;" d="M270.701,235.608l0.023-0.174c0.04,0.005,4.066,0.533,4.945,0.012l0.09,0.151
						c-0.321,0.191-1.003,0.254-1.765,0.254C272.547,235.851,270.81,235.623,270.701,235.608z"/>
				</g>
				<g id="XMLID_00000097464062759527785820000012418947268814705328_">
					<path style="fill:#995033;" d="M264.828,235.819l0.069-0.161c0.059,0.025,5.946,2.506,10.135,1.863l0.027,0.173
						c-0.489,0.075-0.999,0.108-1.521,0.108C269.53,237.803,264.88,235.842,264.828,235.819z"/>
				</g>
				<g id="XMLID_00000003065152569593512700000006395242934582079406_">
					<path style="fill:#995033;" d="M266.97,239.095l0.053-0.167c0.061,0.019,6.148,1.93,7.434,0.779l0.117,0.131
						c-0.331,0.296-0.937,0.409-1.667,0.409C270.637,240.246,267.162,239.155,266.97,239.095z"/>
				</g>
			</g>
			<g id="man_1_">
				<g>
					<g>
						<g>
							<g>
								<path style="fill:#F89D13;" d="M373.456,317.87c0,0,15.128-56.343,5.867-73.373c-9.994-18.378-37.378-9.225-40.779-2.883
									c-5.806,10.829-9.074,71.999-9.074,71.999L373.456,317.87z"/>
							</g>
						</g>
					</g>
				</g>
				<g>
					<g>
						<g>
							<g>
								<rect x="340.074" y="327.266" style="fill:#0F335B;" width="5.801" height="47.723"/>
							</g>
						</g>
					</g>
				</g>
				<g>
					<g>
						<g>
							<g>
								<path style="fill:#0F335B;" d="M360.041,382.605c1.528-1.846-7.668-8.546-17.127-8.546c-9.459,0-17.876,6.637-17.127,8.546
									C326.537,384.515,358.513,384.451,360.041,382.605z"/>
							</g>
						</g>
					</g>
				</g>
				<g>
					<g>
						<g>
							<g>
								<path style="fill:#CC724A;" d="M253.317,361.338l-3.236,17.619c0,0-14.395,7.339-12.66,9.077
									c2.521,2.527,20.199-2.71,20.199-2.71l5.012-21.14L253.317,361.338z"/>
							</g>
						</g>
					</g>
				</g>
				<g>
					<g>
						<g>
							<g>
								<path style="fill:#CC724A;" d="M277.619,366.193l-3.075,17.563c0,0-13.778,8.498-11.913,10.089
									c2.709,2.311,19.923-4.362,19.923-4.362l4.665-21.199L277.619,366.193z"/>
							</g>
						</g>
					</g>
				</g>
				<g>
					<g>
						<g>
							<g>
								<path style="fill:#0F335B;" d="M343.73,307.927c-3.904,5.787-33.169,8.865-51.141,10.228
									c-8.212,0.622-14.068,0.885-14.068,0.885l-12.555,54.6l-21.711-2.368c0,0,11.107-70.579,17.14-78.244
									c3.414-4.337,20.365-6.727,36.349-7.857c11.899-0.841,23.897-1.794,23.897-1.794l1.865-4.96h21.086
									C344.593,278.418,349.42,299.494,343.73,307.927z"/>
							</g>
						</g>
					</g>
				</g>
				<g>
					<g>
						<g>
							<g>
								<path style="fill:#184785;" d="M369.506,284.009c0,0,2.413,10.181,0,23.211c-2.413,13.03-26.887,11.58-32.403,12.347
									s-35.856,1.317-35.856,1.317l-11.119,56.464l-20.588-2.777c0,0-1.164-60.534,5.298-76.059
									c3.813-9.161,53.805-11.062,53.805-11.062l0.705-7.279L369.506,284.009z"/>
							</g>
						</g>
					</g>
				</g>
				<g>
					<g>
						<g>
							<g>
								<path style="fill:#0F335B;" d="M363.026,300.511c-0.011,0-0.022-0.001-0.034-0.002c-4.68-0.658-7.454-2.571-8.956-4.061
									c-1.639-1.625-2.156-3.083-2.177-3.144c-0.044-0.126,0.023-0.264,0.149-0.308c0.126-0.044,0.264,0.023,0.308,0.149l0,0
									c0.02,0.057,2.076,5.667,10.744,6.885c0.132,0.019,0.224,0.141,0.206,0.273
									C363.248,300.424,363.145,300.511,363.026,300.511z"/>
							</g>
						</g>
					</g>
				</g>
				<g>
					<g>
						<g>
							<g>
								<path style="fill:#F89D13;" d="M378.338,242.855c0,0,5.061,19.023,1.408,45.418c0,0-9.173,0.415-23.849,12.198
									c-5.416,4.348-10.289,13.365-13.131,17.781c-14.549,1.466-30.297,2.3-32.79,2.443c-1.662,0.095-1.275,5.912,0.219,7.035
									c1.09,0.819,66.341,1.26,67.571-1.629C380.4,319.915,390.12,256.528,378.338,242.855z"/>
							</g>
						</g>
					</g>
				</g>
				<g>
					<path style="fill:#0F335B;" d="M301.491,320.545c0.142,0,0.259-0.112,0.264-0.255c0.005-0.147,0.095-3.629-2.306-6.894
						c-0.087-0.117-0.252-0.143-0.369-0.056c-0.118,0.086-0.143,0.252-0.056,0.369c2.289,3.112,2.205,6.529,2.204,6.563
						c-0.005,0.146,0.11,0.268,0.255,0.273C301.485,320.545,301.488,320.545,301.491,320.545z"/>
				</g>
				<g>
					<path style="fill:#0F335B;" d="M300.764,320.98c0.043,0,0.086-0.01,0.126-0.032c0.128-0.07,0.175-0.23,0.105-0.359
						c-1.74-3.189-4.827-4.18-4.957-4.221c-0.14-0.043-0.287,0.035-0.331,0.174c-0.044,0.139,0.034,0.287,0.173,0.331
						c0.03,0.009,3.016,0.975,4.651,3.969C300.58,320.93,300.671,320.98,300.764,320.98z"/>
				</g>
				<g>
					<path style="fill:#0F335B;" d="M274.545,383.756l8.681,2.68l-1.474,6.698c0,0-19.343,5.732-21.21,2.214
						S274.545,383.756,274.545,383.756z"/>
				</g>
				<g>
					<path style="fill:#0F335B;" d="M250.081,378.957l8.278,3.251l-1.375,5.801c0,0-18.306,5.383-21.373,1.937
						C232.543,386.5,250.081,378.957,250.081,378.957z"/>
				</g>
				<g>
					<path style="fill:#FFFFFF;" d="M247.94,379.928c0.286,0.125,0.537,0.256,0.785,0.391c0.247,0.135,0.483,0.28,0.719,0.428
						c0.234,0.152,0.466,0.308,0.702,0.471c0.121,0.078,0.235,0.167,0.363,0.244c0.124,0.081,0.245,0.168,0.389,0.241
						c-0.053-0.148-0.125-0.284-0.201-0.419c-0.084-0.128-0.169-0.258-0.271-0.373c-0.2-0.234-0.435-0.44-0.697-0.608
						c-0.263-0.166-0.552-0.296-0.857-0.37C248.569,379.862,248.244,379.834,247.94,379.928z"/>
				</g>
				<g>
					<path style="fill:#FFFFFF;" d="M244.35,381.704c0.344,0.044,0.665,0.091,0.974,0.155c0.308,0.064,0.6,0.15,0.873,0.268
						c0.276,0.113,0.523,0.274,0.754,0.471c0.244,0.189,0.431,0.443,0.666,0.705c-0.029-0.342-0.135-0.697-0.358-0.985
						c-0.212-0.294-0.512-0.537-0.85-0.676c-0.336-0.145-0.699-0.207-1.051-0.196C245.005,381.46,244.657,381.532,244.35,381.704z"
						/>
				</g>
				<g>
					<path style="fill:#FFFFFF;" d="M241.451,383.302c0.294,0.082,0.556,0.166,0.806,0.267c0.249,0.1,0.485,0.21,0.706,0.347
						c0.219,0.138,0.439,0.28,0.642,0.458c0.112,0.079,0.203,0.181,0.316,0.269c0.109,0.093,0.205,0.198,0.333,0.291
						c-0.024-0.15-0.065-0.297-0.12-0.44c-0.065-0.136-0.127-0.28-0.222-0.401c-0.17-0.258-0.414-0.467-0.679-0.632
						c-0.268-0.165-0.574-0.262-0.882-0.296C242.046,383.136,241.728,383.165,241.451,383.302z"/>
				</g>
				<g>
					<path style="fill:#FFFFFF;" d="M272.688,384.936c0.354,0.1,0.688,0.19,1.017,0.29c0.328,0.099,0.647,0.208,0.959,0.33
						c0.159,0.056,0.309,0.129,0.465,0.191c0.149,0.076,0.307,0.138,0.454,0.221c0.309,0.146,0.594,0.334,0.923,0.508
						c-0.168-0.325-0.403-0.623-0.693-0.854c-0.138-0.126-0.299-0.219-0.455-0.321c-0.164-0.087-0.328-0.175-0.503-0.238
						c-0.346-0.134-0.71-0.219-1.076-0.245C273.412,384.794,273.039,384.816,272.688,384.936z"/>
				</g>
				<g>
					<path style="fill:#FFFFFF;" d="M269.032,386.851c0.356,0.053,0.686,0.109,1.008,0.183c0.322,0.072,0.63,0.167,0.928,0.284
						c0.298,0.116,0.588,0.251,0.866,0.423c0.289,0.159,0.549,0.365,0.854,0.564c-0.131-0.333-0.331-0.647-0.602-0.894
						c-0.262-0.257-0.584-0.453-0.928-0.585c-0.343-0.134-0.71-0.204-1.074-0.203C269.721,386.626,269.356,386.687,269.032,386.851z
						"/>
				</g>
				<g>
					<path style="fill:#FFFFFF;" d="M266.735,388.304c0.272,0.141,0.521,0.268,0.764,0.401c0.243,0.131,0.475,0.267,0.699,0.415
						c0.224,0.147,0.446,0.298,0.661,0.469c0.224,0.163,0.429,0.351,0.681,0.533c-0.065-0.298-0.196-0.582-0.383-0.823
						c-0.181-0.248-0.414-0.456-0.672-0.623c-0.257-0.168-0.544-0.29-0.841-0.359C267.348,388.251,267.036,388.228,266.735,388.304z
						"/>
				</g>
				<path style="fill:#1E2633;" d="M323.74,283.613c6.431,0.76,13.584,1.289,21.355,1.372c8.983,0.096,17.179-0.422,24.426-1.234
					c0.064-3.493,0.115-8.723,0-15.087c-0.143-7.923-0.47-13.561-0.558-15.361c-0.36-7.369-0.04-18.667,3.025-35.742
					c-3.421-2.41-6.495-3.33-8.503-3.922c-2.833-0.834-5.322-0.814-10.178-0.98c-3.236-0.111-2.455,0.056-6.133-0.043
					c-6.486-0.175-9.215-0.579-13.989,0.294c-0.545,0.1-1.06,0.227-1.629,0.388c-4.547,1.291-7.924,3.471-10.065,5.115
					C322.24,240.147,322.99,261.88,323.74,283.613z"/>
				<path style="fill:#1E2633;" d="M369.465,263.076l-1.289,3.06c0,0-0.953-10.115-1.393-13.267
					c-0.44-3.152-0.982-16.494-0.982-16.494l3.788,10.825l-0.753,0.392L369.465,263.076z"/>
				<path style="fill:#1E2633;" d="M327.778,227.581c0.152,1.636,0.311,4.107,0.22,7.11c-0.116,3.853-0.581,6.539-0.806,8.136
					c-0.865,6.134,0.501,10.519,0.073,15.1c-0.563,6.022-1.16,14.274-1.613,25.948c-0.635-0.098-1.271-0.195-1.906-0.293
					l-1.244-35.877c-0.041-1.552,0.011-3.238,0.21-5.032C323.428,236.192,325.748,231.059,327.778,227.581z"/>
				<g>
					<path style="fill:#5BA5F4;" d="M358.387,221.022l-30.072-0.415c-2.169-0.03-4.481-0.062-6.766-0.364
						c-0.002-0.05-0.003-0.099-0.005-0.149c2.286,0.303,4.602,0.336,6.773,0.366l30.072,0.415c4.305,0.059,8.723,0.12,13.094-0.258
						c-0.008,0.05-0.017,0.1-0.025,0.149c-2.743,0.236-5.503,0.3-8.242,0.3C361.596,221.066,359.983,221.044,358.387,221.022z"/>
					<path style="fill:#5BA5F4;" d="M357.443,215.485c-2.144-0.158-4.315-0.405-6.414-0.645c-2.479-0.283-5.043-0.575-7.576-0.721
						c-4.968-0.286-9.988-0.022-14.928,0.373c0.151-0.062,0.304-0.123,0.459-0.183c4.793-0.374,9.658-0.614,14.477-0.336
						c2.536,0.146,5.102,0.439,7.584,0.722c2.098,0.239,4.268,0.487,6.409,0.644c3.63,0.267,7.245,0.286,10.774,0.18
						c0.095,0.045,0.191,0.091,0.287,0.137c-1.366,0.044-2.745,0.07-4.134,0.07C362.088,215.725,359.769,215.656,357.443,215.485z"
						/>
					<path style="fill:#5BA5F4;" d="M354.62,225c-10.926-1.189-22.059-0.964-32.928-0.588c-0.002-0.049-0.003-0.098-0.005-0.146
						c10.873-0.376,22.012-0.602,32.948,0.589c1.707,0.186,3.443,0.41,5.121,0.626c3.544,0.457,7.175,0.926,10.807,1.069
						c-0.007,0.048-0.014,0.097-0.021,0.145c-3.633-0.144-7.262-0.611-10.805-1.069C358.061,225.41,356.326,225.186,354.62,225z"/>
					<path style="fill:#5BA5F4;" d="M359.17,230.457c-4.503-1.068-9.143-1.441-13.088-1.666c-8.044-0.458-16.175-0.42-24.234,0.107
						c-0.002-0.049-0.003-0.098-0.005-0.147c8.063-0.527,16.199-0.565,24.248-0.106c3.951,0.225,8.599,0.599,13.114,1.67
						c1.601,0.38,3.229,0.854,4.803,1.312c1.888,0.55,3.803,1.108,5.732,1.52c-0.005,0.049-0.011,0.098-0.016,0.147
						c-1.938-0.414-3.861-0.973-5.757-1.526C362.393,231.31,360.767,230.836,359.17,230.457z"/>
					<path style="fill:#5BA5F4;" d="M350.686,234.599c-2.014-0.471-4.097-0.957-6.163-1.342c-7.243-1.348-14.554-1.559-22.564-1.143
						c-0.002-0.049-0.003-0.098-0.005-0.147c8.02-0.416,15.34-0.204,22.596,1.146c2.07,0.385,4.154,0.872,6.17,1.343
						c2.263,0.529,4.604,1.076,6.932,1.48c3.866,0.671,7.791,0.969,11.712,1.08c-0.004,0.049-0.008,0.097-0.012,0.146
						c-3.925-0.112-7.854-0.409-11.725-1.081C355.294,235.675,352.952,235.128,350.686,234.599z"/>
					<path style="fill:#5BA5F4;" d="M353.149,238.862c-10.268-1.534-20.698-1.11-30.966-0.239c-0.002-0.049-0.003-0.098-0.005-0.147
						c10.275-0.872,20.712-1.296,30.993,0.24c3.249,0.486,6.533,1.177,9.709,1.846c2.031,0.428,4.083,0.86,6.15,1.243
						c-0.003,0.049-0.005,0.099-0.008,0.148c-2.075-0.384-4.135-0.818-6.172-1.247C359.676,240.038,356.394,239.347,353.149,238.862
						z"/>
					<path style="fill:#5BA5F4;" d="M322.43,245.799c-0.002-0.049-0.003-0.098-0.005-0.147c15.458,0.258,31.006,0.216,46.458-0.123
						c-0.001,0.049-0.003,0.099-0.004,0.148c-8.78,0.193-17.59,0.289-26.399,0.289C335.791,245.966,329.102,245.91,322.43,245.799z"
						/>
					<path style="fill:#5BA5F4;" d="M322.627,251.511c-0.002-0.049-0.003-0.098-0.005-0.147l35.965,2.196
						c3.433,0.21,6.923,0.423,10.418,0.723c0.002,0.048,0.005,0.097,0.008,0.148c-3.501-0.301-6.996-0.514-10.435-0.724
						L322.627,251.511z"/>
					<path style="fill:#5BA5F4;" d="M322.92,259.998c15.412-0.04,30.925-0.263,46.322-0.667c0.002,0.048,0.004,0.097,0.006,0.146
						c-15.398,0.404-30.911,0.628-46.323,0.668C322.923,260.096,322.922,260.047,322.92,259.998z"/>
					<path style="fill:#5BA5F4;" d="M341.403,264.385c2.241,0.107,4.51,0.335,6.704,0.555c0.744,0.075,1.514,0.152,2.271,0.223
						c6.33,0.597,12.708,0.873,19.083,0.831c0.001,0.049,0.002,0.098,0.004,0.147c-0.423,0.003-0.845,0.005-1.268,0.005
						c-5.958,0-11.918-0.279-17.833-0.837c-0.758-0.071-1.527-0.149-2.272-0.223c-2.192-0.22-4.459-0.448-6.696-0.555
						c-4.39-0.21-8.83,0.04-12.594,0.313c-1.892,0.137-3.796,0.295-5.698,0.472c-0.002-0.049-0.003-0.098-0.005-0.147
						c1.9-0.176,3.802-0.334,5.693-0.471C332.559,264.425,337.005,264.174,341.403,264.385z"/>
					<path style="fill:#5BA5F4;" d="M346.339,269.336c5.858-0.142,11.107,0.038,16.045,0.551c2.488,0.259,4.87,0.598,7.17,1.023
						c0.001,0.052,0.001,0.105,0.002,0.158c-6.9-1.274-14.569-1.795-23.213-1.585c-7.577,0.184-15.255,0.886-22.679,1.565
						c-0.12,0.011-0.241,0.022-0.361,0.033c-0.002-0.049-0.003-0.098-0.005-0.147c0.117-0.011,0.236-0.022,0.353-0.032
						C331.078,270.223,338.758,269.52,346.339,269.336z"/>
					<path style="fill:#5BA5F4;" d="M361.213,277.121c0.292,0.017,0.584,0.035,0.877,0.053c2.468,0.15,4.986,0.303,7.499,0.284
						c0,0.049,0,0.097,0,0.146c-0.143,0.001-0.287,0.003-0.43,0.003c-2.374,0-4.748-0.144-7.077-0.286
						c-0.292-0.018-0.585-0.035-0.877-0.053c-12.5-0.748-25.155-0.971-37.711-0.667c-0.002-0.049-0.003-0.098-0.005-0.147
						C336.049,276.149,348.708,276.372,361.213,277.121z"/>
					<path style="fill:#5BA5F4;" d="M342.441,280.348c5.139-0.276,10.376-0.094,15.441,0.082c3.843,0.134,7.766,0.27,11.686,0.207
						c0,0.049-0.001,0.098-0.002,0.147c-3.922,0.063-7.846-0.073-11.69-0.207c-5.061-0.176-10.295-0.358-15.428-0.083
						c-3.386,0.182-6.826,0.568-10.152,0.941c-2.836,0.318-5.715,0.641-8.608,0.842c-0.002-0.049-0.003-0.098-0.005-0.147
						c2.889-0.201,5.765-0.524,8.596-0.841C335.608,280.916,339.05,280.53,342.441,280.348z"/>
					<path style="fill:#5BA5F4;" d="M361.037,256.681c-12.68-0.943-25.532-1.416-38.28-1.41c-0.002-0.049-0.003-0.098-0.005-0.147
						c12.754-0.006,25.611,0.467,38.296,1.411c0.585,0.044,1.17,0.088,1.755,0.133c2.088,0.159,4.21,0.32,6.342,0.434
						c0.002,0.049,0.005,0.098,0.007,0.147c-2.138-0.115-4.266-0.276-6.36-0.435C362.207,256.769,361.622,256.725,361.037,256.681z"
						/>
					<path style="fill:#5BA5F4;" d="M322.473,247.033c15.457,0.146,31.005,1.076,46.38,2.771c0.001,0.049,0.001,0.099,0.002,0.148
						c-15.375-1.695-30.92-2.625-46.377-2.772C322.476,247.131,322.475,247.082,322.473,247.033z"/>
					<path style="fill:#5BA5F4;" d="M353.225,243.382c-3.961-0.395-8.006-0.53-11.917-0.66l-19.006-0.635
						c-0.002-0.049-0.003-0.098-0.005-0.147l19.016,0.636c3.914,0.131,7.961,0.266,11.927,0.661c1.777,0.177,3.581,0.41,5.326,0.636
						c3.389,0.438,6.866,0.887,10.336,0.949c-0.001,0.049-0.003,0.098-0.004,0.146c-3.477-0.062-6.958-0.512-10.351-0.95
						C356.803,243.792,355,243.559,353.225,243.382z"/>
					<path style="fill:#5BA5F4;" d="M359.997,217.768c-4.089-0.127-8.246-0.324-12.267-0.514c-7.673-0.363-15.553-0.735-23.39-0.647
						c0.082-0.05,0.165-0.1,0.249-0.149c7.758-0.077,15.555,0.291,23.148,0.65c4.02,0.19,8.177,0.387,12.265,0.514
						c3.968,0.124,7.983,0.185,11.969,0.184c-0.009,0.049-0.017,0.098-0.026,0.147c-0.021,0-0.041,0-0.062,0
						C367.924,217.953,363.936,217.891,359.997,217.768z"/>
					<path style="fill:#5BA5F4;" d="M369.583,274.057c-15.358-0.211-30.867-0.687-46.227-1.418
						c-0.002-0.049-0.003-0.098-0.005-0.147c15.361,0.732,30.872,1.208,46.231,1.419
						C369.583,273.959,369.583,274.008,369.583,274.057z"/>
				</g>
				<path style="fill:#1E2633;" d="M367.852,215.331c0,0,8.369,1.846,12.556,14.684l2.652,10.187l-14.237,7.396
					C368.823,247.598,361.995,234.696,367.852,215.331z"/>
				<path style="fill:#1E2633;" d="M330.557,213.774c0,0-6.291,0.207-11.585,5.046c-3.55,3.245-4.741,7.473-6.833,14.315
					c-1.088,3.559-1.721,6.577-2.094,8.652c5.071,1.488,10.143,2.977,15.214,4.465C327.026,235.426,328.792,224.6,330.557,213.774z"
					/>
				<g>
					<path style="fill:#5BA5F4;" d="M323.837,215.696c0.068-0.031,0.135-0.062,0.202-0.092c1.09,0.329,2.193,0.62,3.307,0.833
						c0.879,0.169,1.782,0.292,2.662,0.409c-0.008,0.048-0.016,0.097-0.024,0.145c-0.881-0.117-1.784-0.241-2.666-0.41
						C326.144,216.357,324.983,216.047,323.837,215.696z"/>
					<path style="fill:#5BA5F4;" d="M319.077,218.807c3.484,0.262,6.95,0.76,10.367,1.491c-0.008,0.048-0.016,0.097-0.024,0.145
						c-3.458-0.74-6.967-1.242-10.494-1.501C318.977,218.897,319.027,218.852,319.077,218.807z"/>
					<path style="fill:#5BA5F4;" d="M316.965,221.13c0.033-0.046,0.067-0.091,0.1-0.137c2.745,0.285,5.481,0.678,8.183,1.179
						c1.214,0.225,2.496,0.482,3.738,0.926c-0.008,0.049-0.016,0.098-0.024,0.147c-1.24-0.446-2.525-0.704-3.741-0.929
						C322.496,221.811,319.736,221.415,316.965,221.13z"/>
					<path style="fill:#5BA5F4;" d="M315.271,224.036c4.287,1.198,8.655,2.311,13.092,2.892c-0.008,0.049-0.016,0.097-0.024,0.146
						c-4.452-0.583-8.832-1.702-13.131-2.903C315.229,224.125,315.25,224.08,315.271,224.036z"/>
					<path style="fill:#5BA5F4;" d="M315.088,228.05c-0.404-0.128-0.821-0.263-1.244-0.411c0.016-0.046,0.032-0.092,0.048-0.139
						c0.422,0.148,0.838,0.283,1.24,0.41c3.614,1.142,7.29,2.009,10.41,2.706c0.689,0.154,1.421,0.319,2.128,0.56
						c-0.008,0.049-0.016,0.098-0.024,0.147c-0.707-0.244-1.443-0.409-2.136-0.564C322.387,230.062,318.707,229.194,315.088,228.05z
						"/>
					<path style="fill:#5BA5F4;" d="M313.192,229.626c4.634,1.473,9.345,2.862,14.055,4.142c-0.008,0.048-0.016,0.097-0.024,0.146
						c-4.716-1.281-9.434-2.672-14.075-4.147C313.163,229.719,313.178,229.672,313.192,229.626z"/>
					<path style="fill:#5BA5F4;" d="M312.164,232.962c4.719,1.832,9.556,3.399,14.451,4.68c-0.008,0.048-0.016,0.097-0.024,0.145
						c-4.901-1.282-9.745-2.851-14.47-4.685C312.136,233.055,312.15,233.008,312.164,232.962z"/>
					<path style="fill:#5BA5F4;" d="M313.189,236.581c-0.608-0.18-1.245-0.377-1.894-0.596c0.013-0.047,0.025-0.094,0.038-0.142
						c0.65,0.22,1.288,0.417,1.898,0.597c2.424,0.717,4.921,1.331,7.337,1.924l5.701,1.401c-0.008,0.048-0.016,0.097-0.024,0.145
						l-5.713-1.404C318.116,237.913,315.617,237.299,313.189,236.581z"/>
					<path style="fill:#5BA5F4;" d="M311.891,239.201c-0.417-0.172-0.837-0.345-1.258-0.519c0.011-0.048,0.022-0.097,0.033-0.145
						c0.429,0.177,0.857,0.353,1.281,0.529c3.725,1.538,7.577,3.128,11.447,4.471c0.682,0.237,1.401,0.479,2.145,0.7
						c-0.008,0.049-0.016,0.097-0.024,0.146c-0.753-0.224-1.48-0.468-2.17-0.707C319.471,242.331,315.618,240.74,311.891,239.201z"
						/>
				</g>
				<g>
					<path style="fill:#5BA5F4;" d="M366.747,219.545c0.013-0.058,0.026-0.116,0.039-0.174c1.148-0.468,2.324-0.97,3.539-1.511
						c0.491-0.219,0.952-0.428,1.388-0.63c0.046,0.032,0.092,0.064,0.139,0.097c-0.459,0.213-0.946,0.434-1.467,0.666
						C369.135,218.551,367.926,219.066,366.747,219.545z"/>
					<path style="fill:#5BA5F4;" d="M366.07,223.163c2.761-1.15,5.457-2.45,8.078-3.893c0.036,0.036,0.072,0.072,0.108,0.108
						c-2.662,1.468-5.403,2.788-8.211,3.954C366.053,223.276,366.061,223.219,366.07,223.163z"/>
					<path style="fill:#5BA5F4;" d="M365.562,227.992c4.596-1.387,8.386-3.047,11.536-5.062c0.027,0.041,0.054,0.081,0.08,0.123
						c-3.174,2.031-6.993,3.701-11.625,5.095C365.556,228.096,365.559,228.044,365.562,227.992z"/>
					<path style="fill:#5BA5F4;" d="M379.083,226.583c0.02,0.045,0.041,0.089,0.061,0.135c-0.645,0.193-1.288,0.387-1.925,0.578
						c-3.842,1.156-7.767,2.337-11.74,3.332c0-0.05,0.001-0.101,0.001-0.151c3.957-0.993,7.868-2.169,11.696-3.321
						C377.808,226.966,378.444,226.775,379.083,226.583z"/>
					<path style="fill:#5BA5F4;" d="M380.559,230.595l0.038,0.144c-2.316,1.091-4.702,1.922-6.927,2.626
						c-2.619,0.828-5.288,1.571-7.951,2.268c-0.005-0.049-0.01-0.098-0.015-0.148c2.654-0.695,5.313-1.435,7.921-2.26
						C375.853,232.521,378.242,231.689,380.559,230.595z"/>
					<path style="fill:#5BA5F4;" d="M381.583,234.529c-5.001,1.872-10.261,2.959-15.503,3.837c-0.008-0.048-0.016-0.096-0.024-0.145
						c5.239-0.878,10.495-1.965,15.489-3.835L381.583,234.529z"/>
					<path style="fill:#5BA5F4;" d="M379.018,238.906c1.132-0.489,2.222-1.051,3.267-1.681l0.039,0.148
						c-1.04,0.624-2.123,1.182-3.248,1.668c-2.158,0.932-4.451,1.593-6.668,2.232c-1.765,0.509-3.554,1.024-5.362,1.492
						c-0.013-0.047-0.026-0.094-0.039-0.141c1.807-0.468,3.595-0.983,5.361-1.491C374.581,240.495,376.869,239.835,379.018,238.906z
						"/>
				</g>
			</g>
			<g>
				<path style="fill:#CC724A;" d="M352.327,197.251c-0.058,0.476-1.203,17.218-1.203,17.218s-3.43,3.85-6.494,3.479
					c-3.065-0.371-5.031-3.119-5.031-3.119l1.435-11.856L352.327,197.251z"/>
				<path style="fill:#DEAC93;" d="M340.596,206.783c0,0,0.923,0.725,2.678,1.111c3.223,0.709,5.775-0.713,6.536-1.319
					c0,0-2.068,3.158-5.779,2.985c-1.005-0.047-2.483-0.405-3.643-1.104L340.596,206.783z"/>
				<polygon style="fill:#F89D13;" points="352.749,203.37 354.95,199.193 353.607,199.873 				"/>
				<path style="fill:#CC724A;" d="M344.519,208.689c4.988,0.46,8.652-4.086,9.088-8.816l0.691-7.501
					c0.436-4.73-2.885-8.903-7.417-9.321l0,0c-3.63-0.334-6.934,1.373-8.33,4.683c-0.347,0.822-0.578,2.184-0.665,3.126
					l-0.691,7.501C336.759,203.091,339.531,208.23,344.519,208.689z"/>
				<path style="fill:#CC724A;" d="M356.584,197.504c-0.137,1.491-1.161,2.616-2.287,2.512c-2.092-0.193-1.927-1.396-1.789-2.887
					c0.137-1.491,1.161-2.616,2.287-2.512C355.92,194.72,356.721,196.013,356.584,197.504z"/>
				<path style="fill:#DEAC93;" d="M355.8,196.748c-0.054-0.367-0.219-0.807-0.575-0.98c-0.308-0.15-0.764,0.012-0.81,0.377
					c-0.009,0.071,0.108,0.101,0.126,0.029c0.042-0.175,0.21-0.269,0.384-0.253c0.184,0.018,0.335,0.164,0.425,0.315
					c0.194,0.325,0.232,0.743,0.174,1.11c-0.059,0.373-0.234,0.751-0.511,1.013c-0.128,0.121-0.289,0.218-0.462,0.256
					c-0.148,0.032-0.352,0.023-0.483-0.054c-0.054-0.032-0.144,0.02-0.105,0.087c0.083,0.144,0.204,0.253,0.374,0.272
					c0.179,0.02,0.369-0.033,0.528-0.111c0.36-0.176,0.616-0.516,0.775-0.877C355.802,197.564,355.859,197.146,355.8,196.748z"/>
				<path style="fill:#F89D13;" d="M349.092,179.348c4.059,0.645,7.788,4.796,7.284,5.008c0.525,0.159,3.049,0.622,2.589,3.42
					c-0.385,2.348-2.251,6.439-2.942,7.596c-0.903-0.57-1.688-0.514-1.713-0.385c-0.31,1.587-0.772,2.02-0.772,2.02
					s-0.673-0.911-0.704-2.14c-0.031-1.229,0.279-1.48-1.215-2.483c-1.494-1.003-0.008-4.892-0.008-4.892s-5.441,2.794-9.252,2.929
					c-1.786,0.064-4.975-0.009-6.08-1.061c-2.631-2.503-0.169-3.641,0.205-5.476c0.288-1.416,1.282-3.355,3.389-3.549
					c0.702-0.065,2.437,0.777,3.29,0.59C345.011,180.524,346.179,178.885,349.092,179.348z"/>
			</g>
		</g>
		<g>
			<path style="fill:#7FABD3;" d="M353.064,286.112c-0.752-2.618-28.325-3.836-28.325-3.836l12.466,9.393
				C337.205,291.668,353.815,288.729,353.064,286.112z"/>
			<path style="fill:#93BBE5;" d="M337.205,291.668l-43.068-1.4l-7.096-22.398c-0.408-1.345,0.598-2.702,2.004-2.702h37.646
				c1.471,0,2.768,0.962,3.195,2.37L337.205,291.668z"/>
			
				<ellipse transform="matrix(0.1297 -0.9916 0.9916 0.1297 -6.1053 548.7097)" style="fill:#7FABD3;" cx="309.521" cy="277.833" rx="1.701" ry="1.701"/>
		</g>
		<g>
			<g>
				<g>
					<path style="fill:#DEAC93;" d="M344.365,200.278c-0.013,0-0.026-0.001-0.04-0.003c-0.362-0.051-2.174-0.355-2.278-1.333
						c-0.091-0.856,1.31-3.439,1.591-3.948c0.075-0.135,0.245-0.184,0.38-0.109c0.135,0.075,0.184,0.245,0.109,0.38
						c-0.619,1.119-1.581,3.091-1.524,3.617c0.043,0.405,1.099,0.74,1.8,0.839c0.153,0.022,0.26,0.163,0.238,0.316
						C344.622,200.177,344.502,200.278,344.365,200.278z"/>
				</g>
			</g>
			<g>
				<path style="fill:#363435;" d="M339.962,195.405c-0.037,0.477,0.285,0.891,0.718,0.924s0.814-0.327,0.85-0.804
					c0.037-0.477-0.285-0.891-0.718-0.924C340.38,194.569,339.999,194.928,339.962,195.405z"/>
			</g>
			<g>
				<path d="M349.769,193.206c-0.067,0-0.134-0.024-0.187-0.072c-1.212-1.088-2.768-0.298-2.784-0.29
					c-0.137,0.071-0.306,0.018-0.378-0.119c-0.071-0.137-0.018-0.306,0.119-0.377c0.078-0.04,1.919-0.974,3.416,0.37
					c0.115,0.103,0.125,0.28,0.021,0.395C349.922,193.175,349.846,193.206,349.769,193.206z"/>
			</g>
			<g>
				<path d="M342.048,192.506c-0.06,0-0.121-0.019-0.172-0.06l0,0c-0.04-0.031-0.998-0.76-1.951-0.087
					c-0.126,0.089-0.301,0.059-0.39-0.067c-0.089-0.126-0.059-0.301,0.067-0.39c1.04-0.733,2.168-0.252,2.62,0.105
					c0.121,0.096,0.142,0.272,0.046,0.393C342.213,192.469,342.131,192.506,342.048,192.506z"/>
			</g>
			<g>
				<g>
					<path style="fill:#DEAC93;" d="M347.125,201.926c-3.866,0.721-5.513-0.037-5.513-0.037s-0.226,2.399,2.009,2.694
						C346.819,205.006,347.125,201.926,347.125,201.926z"/>
				</g>
			</g>
			<g>
				<path style="fill:#FFFFFF;" d="M341.743,201.94c0,0,0.082,0.448,0.117,0.539c0.037,0.089,0.399,0.363,1.964,0.514
					c1.324,0.129,2.715-0.202,3.109-0.306c0.158-0.429,0.19-0.76,0.19-0.76c-0.226,0.043-0.445,0.078-0.656,0.11
					c-2.807,0.433-4.291,0.048-4.722-0.098C341.743,201.94,341.743,201.94,341.743,201.94z"/>
			</g>
			<g>
				
					<ellipse transform="matrix(0.0766 -0.9971 0.9971 0.0766 125.058 527.4905)" style="fill:#363435;" cx="347.321" cy="196.227" rx="0.893" ry="0.81"/>
			</g>
		</g>
		<g>
			<path id="XMLID_00000064324610613330984750000009869975025707023232_" style="fill:#CC724A;" d="M316.439,238.464
				c0.374,0.255,0.748,0.49,1.126,0.708c-0.867,0.157-1.242,1.31-0.146,2.044c0.759,0.514,1.541,0.949,2.344,1.32
				c-0.626,0.333-0.599,1.378,0.517,1.925c2.425,1.187,4.33,1.895,6.674,1.895c0.493,0,1.003-0.031,1.544-0.095
				c0,0,23.739,16.134,37.342,21.182c4.249,1.575,7.478,2.071,8.72,0.656c0.796-0.908,1.481-2.051,2.162-3.334v-0.003
				c1.425-2.604,3.262-6.693,4.119-12c0.754-4.667,0.485-8.637,0.08-11.394c-5.113,0.774-10.226,1.548-15.339,2.322l-1.435,6.007
				l-28.797-11.038c-0.02-0.02-0.032-0.041-0.053-0.058c-2.633-2.299-4.737-3.534-8.016-4.701c-1.588-0.561-2.459,1.31-0.887,1.867
				c0.966,0.344,1.83,0.857,2.64,1.459c-3.201-0.041-6.412-0.585-9.259-1.949c-1.507-0.725-2.401,1.15-0.888,1.878
				c1.633,0.782,3.313,1.398,5.028,1.837c-2.262-0.259-4.429-0.752-6.422-2.123C316,235.845,314.962,237.451,316.439,238.464z"/>
			<g id="XMLID_00000046298324344525998550000018353025269359596731_">
				<polygon style="fill:#995033;" points="364.154,249.695 369.986,253.404 364.814,246.942 				"/>
			</g>
			<g id="XMLID_00000069381368922808718570000009571556808965737658_">
				<path style="fill:#995033;" d="M326.954,239.288c0.783,0,1.484-0.065,1.814-0.261l-0.092-0.155
					c-0.904,0.536-5.042-0.006-5.084-0.012l-0.024,0.179C323.681,239.054,325.466,239.288,326.954,239.288z"/>
			</g>
			<g id="XMLID_00000146477439261992208760000014602441868176867241_">
				<path style="fill:#995033;" d="M326.485,241.295c0.536,0,1.061-0.034,1.564-0.111l-0.027-0.178
					c-4.306,0.661-10.358-1.889-10.419-1.915l-0.071,0.166C317.585,239.279,322.366,241.295,326.485,241.295z"/>
			</g>
			<g id="XMLID_00000095303189681697673470000001924953777698768528_">
				<path style="fill:#995033;" d="M325.837,243.807c0.751,0,1.373-0.116,1.714-0.421l-0.12-0.135
					c-1.323,1.184-7.579-0.781-7.642-0.8l-0.054,0.172C319.931,242.686,323.503,243.807,325.837,243.807z"/>
			</g>
		</g>
	</g>
	<g>
		<g>
			<path style="fill:#5BA5F4;" d="M260.211,101.146c-0.285,0-0.57-0.109-0.787-0.326c-2.514-2.509-5.86-3.891-9.424-3.891
				s-6.91,1.382-9.424,3.891c-0.436,0.435-1.141,0.434-1.576-0.001c-0.435-0.436-0.434-1.141,0.001-1.576
				c2.934-2.929,6.84-4.542,10.998-4.542c4.158,0,8.064,1.613,10.998,4.542c0.436,0.435,0.436,1.141,0.001,1.576
				C260.782,101.037,260.496,101.146,260.211,101.146z"/>
			<path style="fill:#5BA5F4;" d="M233.737,95.26c-0.328,0-0.656-0.125-0.906-0.375c-0.5-0.5-0.5-1.311,0-1.811
				c4.577-4.577,10.675-7.098,17.168-7.098c6.487,0,12.584,2.519,17.167,7.092c0.501,0.5,0.502,1.311,0.002,1.811
				c-0.5,0.501-1.31,0.502-1.811,0.002c-4.1-4.091-9.554-6.344-15.358-6.344c-5.81,0-11.264,2.254-15.357,6.348
				C234.393,95.135,234.065,95.26,233.737,95.26z"/>
			<path style="fill:#5BA5F4;" d="M227.331,88.969c-0.358,0-0.715-0.137-0.988-0.41c-0.545-0.546-0.544-1.43,0.002-1.974
				c6.311-6.301,14.711-9.771,23.656-9.771c8.939,0,17.34,3.47,23.655,9.77c0.546,0.545,0.547,1.429,0.002,1.974
				c-0.545,0.546-1.429,0.547-1.975,0.002c-5.788-5.774-13.489-8.954-21.683-8.954c-8.199,0-15.899,3.18-21.683,8.954
				C228.045,88.833,227.688,88.969,227.331,88.969z"/>
			<path style="fill:#5BA5F4;" d="M278.419,83.26c-0.368,0-0.735-0.14-1.016-0.421c-7.31-7.305-17.042-11.328-27.403-11.328
				c-10.366,0-20.098,4.023-27.403,11.328c-0.561,0.562-1.472,0.562-2.033,0c-0.561-0.562-0.561-1.472,0-2.033
				c7.848-7.848,18.302-12.17,29.435-12.17c11.129,0,21.582,4.322,29.435,12.169c0.561,0.561,0.562,1.471,0.001,2.033
				C279.155,83.12,278.787,83.26,278.419,83.26z"/>
			<path style="fill:#5BA5F4;" d="M255.611,110.242c0.01,1.437-0.537,2.88-1.629,3.982l-0.014,0.014
				c-1.097,1.097-2.535,1.643-3.967,1.643c-1.437,0-2.875-0.546-3.967-1.643c-0.005-0.005-0.01-0.01-0.014-0.014
				c-1.092-1.102-1.639-2.544-1.629-3.982c0.01-1.428,0.561-2.851,1.643-3.934c0.005-0.005,0.014-0.014,0.019-0.014
				c1.088-1.088,2.52-1.634,3.948-1.634c1.423,0,2.856,0.546,3.948,1.629c0.005,0.005,0.014,0.014,0.019,0.019
				C255.05,107.391,255.601,108.814,255.611,110.242z"/>
			<rect x="244.389" y="110.003" style="fill:#5BA5F4;" width="11.222" height="0.479"/>
		</g>
		<g>
			<path style="fill:#5BA5F4;" d="M380.558,124.253c-0.106-0.057-0.19-0.153-0.228-0.277c-0.436-1.43-1.405-2.607-2.729-3.314
				s-2.841-0.857-4.272-0.424c-0.248,0.075-0.51-0.065-0.585-0.313c-0.075-0.248,0.065-0.51,0.313-0.585
				c1.671-0.506,3.442-0.331,4.986,0.494s2.675,2.198,3.184,3.868c0.076,0.248-0.064,0.51-0.312,0.586
				C380.791,124.325,380.664,124.309,380.558,124.253z"/>
			<path style="fill:#5BA5F4;" d="M371.892,116.817c-0.122-0.065-0.219-0.176-0.262-0.319c-0.087-0.285,0.074-0.586,0.359-0.673
				c2.608-0.792,5.372-0.519,7.784,0.768c2.41,1.286,4.175,3.431,4.97,6.039c0.087,0.285-0.074,0.586-0.359,0.673
				c-0.285,0.087-0.586-0.074-0.673-0.358c-0.711-2.333-2.29-4.251-4.446-5.402c-2.158-1.152-4.631-1.396-6.963-0.688
				C372.16,116.9,372.013,116.882,371.892,116.817z"/>
			<path style="fill:#5BA5F4;" d="M370.76,113.209c-0.133-0.071-0.239-0.193-0.286-0.348c-0.094-0.311,0.081-0.639,0.392-0.733
				c3.593-1.089,7.402-0.712,10.724,1.062c3.32,1.773,5.752,4.727,6.849,8.32c0.095,0.311-0.08,0.639-0.391,0.734
				c-0.311,0.095-0.639-0.08-0.734-0.391c-1.005-3.293-3.234-6.001-6.278-7.626c-3.045-1.626-6.536-1.972-9.829-0.974
				C371.052,113.3,370.892,113.28,370.76,113.209z"/>
			<path style="fill:#5BA5F4;" d="M390.868,121.22c-0.137-0.073-0.245-0.198-0.294-0.358c-1.266-4.163-4.083-7.587-7.932-9.642
				c-3.85-2.056-8.263-2.491-12.425-1.227c-0.32,0.097-0.658-0.083-0.755-0.403c-0.097-0.32,0.083-0.658,0.403-0.755
				c4.471-1.359,9.211-0.891,13.347,1.317c4.134,2.207,7.159,5.885,8.52,10.357c0.097,0.32-0.083,0.658-0.403,0.755
				C391.169,121.314,391.004,121.293,390.868,121.22z"/>
			<path style="fill:#5BA5F4;" d="M377.045,126.719c-0.281,0.536-0.77,0.963-1.395,1.156l-0.008,0.002
				c-0.625,0.19-1.267,0.108-1.8-0.176c-0.534-0.285-0.96-0.773-1.148-1.397c-0.001-0.003-0.002-0.005-0.002-0.008
				c-0.187-0.626-0.104-1.27,0.185-1.802c0.287-0.528,0.774-0.948,1.391-1.135c0.003-0.001,0.008-0.002,0.01-0.002
				c0.62-0.188,1.26-0.107,1.791,0.176c0.529,0.282,0.952,0.769,1.143,1.388c0.001,0.003,0.003,0.008,0.003,0.011
				C377.402,125.549,377.325,126.187,377.045,126.719z"/>
			
				<rect x="374.86" y="123.244" transform="matrix(0.471 -0.8821 0.8821 0.471 87.5564 397.2153)" style="fill:#5BA5F4;" width="0.202" height="4.725"/>
		</g>
		<g>
			<path style="fill:#5BA5F4;" d="M65.392,226.014c0.165-0.149,0.272-0.362,0.284-0.601c0.137-2.769,1.347-5.323,3.407-7.192
				c2.06-1.869,4.719-2.825,7.488-2.693c0.48,0.023,0.888-0.348,0.91-0.827c0.023-0.48-0.347-0.888-0.828-0.911
				c-3.232-0.154-6.337,0.962-8.74,3.142s-3.816,5.162-3.976,8.394c-0.024,0.48,0.346,0.888,0.826,0.912
				C65.005,226.25,65.227,226.163,65.392,226.014z"/>
			<path style="fill:#5BA5F4;" d="M77.611,208.727c0.189-0.172,0.313-0.416,0.327-0.692c0.027-0.552-0.398-1.02-0.95-1.047
				c-5.046-0.245-9.893,1.495-13.648,4.901c-3.75,3.402-5.954,8.056-6.205,13.103c-0.027,0.551,0.397,1.021,0.949,1.048
				c0.552,0.028,1.021-0.397,1.048-0.949c0.225-4.515,2.196-8.678,5.551-11.722c3.359-3.047,7.694-4.604,12.207-4.384
				C77.166,208.999,77.421,208.899,77.611,208.727z"/>
			<path style="fill:#5BA5F4;" d="M78.015,201.731c0.207-0.188,0.342-0.454,0.356-0.755c0.029-0.601-0.435-1.112-1.036-1.14
				c-6.953-0.333-13.629,2.067-18.8,6.757c-5.168,4.688-8.205,11.1-8.551,18.054c-0.03,0.601,0.433,1.113,1.034,1.143
				c0.601,0.03,1.113-0.433,1.143-1.034c0.318-6.374,3.102-12.251,7.839-16.548c4.74-4.3,10.859-6.5,17.231-6.195
				C77.531,202.026,77.809,201.918,78.015,201.731z"/>
			<path style="fill:#5BA5F4;" d="M45.486,225.223c0.213-0.193,0.352-0.467,0.367-0.776c0.395-8.057,3.911-15.486,9.901-20.92
				c5.993-5.436,13.728-8.214,21.783-7.822c0.619,0.03,1.145-0.447,1.175-1.066c0.03-0.619-0.447-1.145-1.066-1.175
				c-8.653-0.421-16.963,2.563-23.399,8.402c-6.434,5.836-10.211,13.817-10.635,22.472c-0.03,0.619,0.447,1.145,1.066,1.176
				C44.987,225.528,45.274,225.416,45.486,225.223z"/>
			<path style="fill:#5BA5F4;" d="M72.822,228.86c0.748,0.836,1.82,1.383,3.03,1.448l0.016,0.001
				c1.21,0.059,2.327-0.379,3.156-1.131c0.831-0.754,1.376-1.824,1.432-3.031c0-0.005,0.001-0.011,0.001-0.016
				c0.054-1.21-0.387-2.33-1.146-3.156c-0.754-0.82-1.819-1.354-3.013-1.412c-0.005,0-0.016-0.001-0.019,0.002
				c-1.199-0.058-2.314,0.377-3.139,1.126c-0.823,0.746-1.365,1.813-1.428,3.012c0,0.005-0.001,0.016-0.001,0.021
				C71.651,226.918,72.079,228.029,72.822,228.86z"/>
			
				<rect x="71.687" y="225.73" transform="matrix(0.7407 -0.6719 0.6719 0.7407 -132.0639 109.6995)" style="fill:#5BA5F4;" width="8.759" height="0.374"/>
		</g>
	</g>
</g>
<g id="TEXTS">
</g>
</svg>
